<svg xmlns="http://www.w3.org/2000/svg" viewBox="0 0 1600 620" role="img" aria-label="hotfix: detect, predict, assess, evacuate"><title>hotfix: detect, predict, assess, evacuate</title><style>path.f,path.r,g.k,g.ret,g.a,g.p{animation-duration:12.0s;animation-timing-function:linear;animation-iteration-count:infinite}g.a,g.p{transform-box:fill-box;transform-origin:50% 50%}.b0{animation-name:b0}.b1{animation-name:b1}.b2{animation-name:b2}.b3{animation-name:b3}.b4{animation-name:b4}.b5{animation-name:b5}.b6{animation-name:b6}.b7{animation-name:b7}.b8{animation-name:b8}.b9{animation-name:b9}.b10{animation-name:b10}.b11{animation-name:b11}.b12{animation-name:b12}.b13{animation-name:b13}.b14{animation-name:b14}.b15{animation-name:b15}.b16{animation-name:b16}.b17{animation-name:b17}.b18{animation-name:b18}.b19{animation-name:b19}.b20{animation-name:b20}.b21{animation-name:b21}.b22{animation-name:b22}.b23{animation-name:b23}.b24{animation-name:b24}.b25{animation-name:b25}.b26{animation-name:b26}.b27{animation-name:b27}.b28{animation-name:b28}.b29{animation-name:b29}.b30{animation-name:b30}.b31{animation-name:b31}.b32{animation-name:b32}.b33{animation-name:b33}.b34{animation-name:b34}.b35{animation-name:b35}@keyframes b0{0.000%{opacity:0;fill:#FFA928;stroke:#FFA928}6.753%{opacity:0;fill:#FFA928;stroke:#FFA928}8.003%{opacity:1;fill:#FFA928;stroke:#FFA928}11.753%{fill:#FF5A14;stroke:#FF5A14}21.753%{fill:#D74312;stroke:#D74312}35.087%{fill:#66170C;stroke:#66170C}85.833%{opacity:1;fill:#66170C;stroke:#66170C}94.167%{opacity:0;fill:#66170C;stroke:#66170C}100.000%{opacity:0;fill:#66170C;stroke:#66170C}}@keyframes b1{0.000%{opacity:0;fill:#FFA928;stroke:#FFA928}7.611%{opacity:0;fill:#FFA928;stroke:#FFA928}8.861%{opacity:1;fill:#FFA928;stroke:#FFA928}12.611%{fill:#FF5A14;stroke:#FF5A14}22.611%{fill:#D74312;stroke:#D74312}35.944%{fill:#68180C;stroke:#68180C}85.833%{opacity:1;fill:#68180C;stroke:#68180C}94.167%{opacity:0;fill:#68180C;stroke:#68180C}100.000%{opacity:0;fill:#68180C;stroke:#68180C}}@keyframes b2{0.000%{opacity:0;fill:#FFA928;stroke:#FFA928}8.468%{opacity:0;fill:#FFA928;stroke:#FFA928}9.718%{opacity:1;fill:#FFA928;stroke:#FFA928}13.468%{fill:#FF5A14;stroke:#FF5A14}23.468%{fill:#D74312;stroke:#D74312}36.801%{fill:#6A180C;stroke:#6A180C}85.833%{opacity:1;fill:#6A180C;stroke:#6A180C}94.167%{opacity:0;fill:#6A180C;stroke:#6A180C}100.000%{opacity:0;fill:#6A180C;stroke:#6A180C}}@keyframes b3{0.000%{opacity:0;fill:#FFA928;stroke:#FFA928}9.325%{opacity:0;fill:#FFA928;stroke:#FFA928}10.575%{opacity:1;fill:#FFA928;stroke:#FFA928}14.325%{fill:#FF5A14;stroke:#FF5A14}24.325%{fill:#D74312;stroke:#D74312}37.658%{fill:#6D190C;stroke:#6D190C}85.833%{opacity:1;fill:#6D190C;stroke:#6D190C}94.167%{opacity:0;fill:#6D190C;stroke:#6D190C}100.000%{opacity:0;fill:#6D190C;stroke:#6D190C}}@keyframes b4{0.000%{opacity:0;fill:#FFA928;stroke:#FFA928}10.182%{opacity:0;fill:#FFA928;stroke:#FFA928}11.432%{opacity:1;fill:#FFA928;stroke:#FFA928}15.182%{fill:#FF5A14;stroke:#FF5A14}25.182%{fill:#D74312;stroke:#D74312}38.515%{fill:#6F1A0C;stroke:#6F1A0C}85.833%{opacity:1;fill:#6F1A0C;stroke:#6F1A0C}94.167%{opacity:0;fill:#6F1A0C;stroke:#6F1A0C}100.000%{opacity:0;fill:#6F1A0C;stroke:#6F1A0C}}@keyframes b5{0.000%{opacity:0;fill:#FFA928;stroke:#FFA928}11.039%{opacity:0;fill:#FFA928;stroke:#FFA928}12.289%{opacity:1;fill:#FFA928;stroke:#FFA928}16.039%{fill:#FF5A14;stroke:#FF5A14}26.039%{fill:#D74312;stroke:#D74312}39.373%{fill:#711A0D;stroke:#711A0D}85.833%{opacity:1;fill:#711A0D;stroke:#711A0D}94.167%{opacity:0;fill:#711A0D;stroke:#711A0D}100.000%{opacity:0;fill:#711A0D;stroke:#711A0D}}@keyframes b6{0.000%{opacity:0;fill:#FFA928;stroke:#FFA928}11.896%{opacity:0;fill:#FFA928;stroke:#FFA928}13.146%{opacity:1;fill:#FFA928;stroke:#FFA928}16.896%{fill:#FF5A14;stroke:#FF5A14}26.896%{fill:#D74312;stroke:#D74312}40.230%{fill:#741B0D;stroke:#741B0D}85.833%{opacity:1;fill:#741B0D;stroke:#741B0D}94.167%{opacity:0;fill:#741B0D;stroke:#741B0D}100.000%{opacity:0;fill:#741B0D;stroke:#741B0D}}@keyframes b7{0.000%{opacity:0;fill:#FFA928;stroke:#FFA928}12.753%{opacity:0;fill:#FFA928;stroke:#FFA928}14.003%{opacity:1;fill:#FFA928;stroke:#FFA928}17.753%{fill:#FF5A14;stroke:#FF5A14}27.753%{fill:#D74312;stroke:#D74312}41.087%{fill:#761B0D;stroke:#761B0D}85.833%{opacity:1;fill:#761B0D;stroke:#761B0D}94.167%{opacity:0;fill:#761B0D;stroke:#761B0D}100.000%{opacity:0;fill:#761B0D;stroke:#761B0D}}@keyframes b8{0.000%{opacity:0;fill:#FFA928;stroke:#FFA928}13.611%{opacity:0;fill:#FFA928;stroke:#FFA928}14.861%{opacity:1;fill:#FFA928;stroke:#FFA928}18.611%{fill:#FF5A14;stroke:#FF5A14}28.611%{fill:#D74312;stroke:#D74312}41.944%{fill:#781C0D;stroke:#781C0D}85.833%{opacity:1;fill:#781C0D;stroke:#781C0D}94.167%{opacity:0;fill:#781C0D;stroke:#781C0D}100.000%{opacity:0;fill:#781C0D;stroke:#781C0D}}@keyframes b9{0.000%{opacity:0;fill:#FFA928;stroke:#FFA928}14.468%{opacity:0;fill:#FFA928;stroke:#FFA928}15.718%{opacity:1;fill:#FFA928;stroke:#FFA928}19.468%{fill:#FF5A14;stroke:#FF5A14}29.468%{fill:#D74312;stroke:#D74312}42.801%{fill:#7B1D0D;stroke:#7B1D0D}85.833%{opacity:1;fill:#7B1D0D;stroke:#7B1D0D}94.167%{opacity:0;fill:#7B1D0D;stroke:#7B1D0D}100.000%{opacity:0;fill:#7B1D0D;stroke:#7B1D0D}}@keyframes b10{0.000%{opacity:0;fill:#FFA928;stroke:#FFA928}15.325%{opacity:0;fill:#FFA928;stroke:#FFA928}16.575%{opacity:1;fill:#FFA928;stroke:#FFA928}20.325%{fill:#FF5A14;stroke:#FF5A14}30.325%{fill:#D74312;stroke:#D74312}43.658%{fill:#7D1D0D;stroke:#7D1D0D}85.833%{opacity:1;fill:#7D1D0D;stroke:#7D1D0D}94.167%{opacity:0;fill:#7D1D0D;stroke:#7D1D0D}100.000%{opacity:0;fill:#7D1D0D;stroke:#7D1D0D}}@keyframes b11{0.000%{opacity:0;fill:#FFA928;stroke:#FFA928}16.182%{opacity:0;fill:#FFA928;stroke:#FFA928}17.432%{opacity:1;fill:#FFA928;stroke:#FFA928}21.182%{fill:#FF5A14;stroke:#FF5A14}31.182%{fill:#D74312;stroke:#D74312}44.515%{fill:#7F1E0D;stroke:#7F1E0D}85.833%{opacity:1;fill:#7F1E0D;stroke:#7F1E0D}94.167%{opacity:0;fill:#7F1E0D;stroke:#7F1E0D}100.000%{opacity:0;fill:#7F1E0D;stroke:#7F1E0D}}@keyframes b12{0.000%{opacity:0;fill:#FFA928;stroke:#FFA928}17.039%{opacity:0;fill:#FFA928;stroke:#FFA928}18.289%{opacity:1;fill:#FFA928;stroke:#FFA928}22.039%{fill:#FF5A14;stroke:#FF5A14}32.039%{fill:#D74312;stroke:#D74312}45.373%{fill:#821F0E;stroke:#821F0E}85.833%{opacity:1;fill:#821F0E;stroke:#821F0E}94.167%{opacity:0;fill:#821F0E;stroke:#821F0E}100.000%{opacity:0;fill:#821F0E;stroke:#821F0E}}@keyframes b13{0.000%{opacity:0;fill:#FFA928;stroke:#FFA928}17.896%{opacity:0;fill:#FFA928;stroke:#FFA928}19.146%{opacity:1;fill:#FFA928;stroke:#FFA928}22.896%{fill:#FF5A14;stroke:#FF5A14}32.896%{fill:#D74312;stroke:#D74312}46.230%{fill:#841F0E;stroke:#841F0E}85.833%{opacity:1;fill:#841F0E;stroke:#841F0E}94.167%{opacity:0;fill:#841F0E;stroke:#841F0E}100.000%{opacity:0;fill:#841F0E;stroke:#841F0E}}@keyframes b14{0.000%{opacity:0;fill:#FFA928;stroke:#FFA928}18.753%{opacity:0;fill:#FFA928;stroke:#FFA928}20.003%{opacity:1;fill:#FFA928;stroke:#FFA928}23.753%{fill:#FF5A14;stroke:#FF5A14}33.753%{fill:#D74312;stroke:#D74312}47.087%{fill:#86200E;stroke:#86200E}85.833%{opacity:1;fill:#86200E;stroke:#86200E}94.167%{opacity:0;fill:#86200E;stroke:#86200E}100.000%{opacity:0;fill:#86200E;stroke:#86200E}}@keyframes b15{0.000%{opacity:0;fill:#FFA928;stroke:#FFA928}19.611%{opacity:0;fill:#FFA928;stroke:#FFA928}20.861%{opacity:1;fill:#FFA928;stroke:#FFA928}24.611%{fill:#FF5A14;stroke:#FF5A14}34.611%{fill:#D74312;stroke:#D74312}47.944%{fill:#89200E;stroke:#89200E}85.833%{opacity:1;fill:#89200E;stroke:#89200E}94.167%{opacity:0;fill:#89200E;stroke:#89200E}100.000%{opacity:0;fill:#89200E;stroke:#89200E}}@keyframes b16{0.000%{opacity:0;fill:#FFA928;stroke:#FFA928}20.468%{opacity:0;fill:#FFA928;stroke:#FFA928}21.718%{opacity:1;fill:#FFA928;stroke:#FFA928}25.468%{fill:#FF5A14;stroke:#FF5A14}35.468%{fill:#D74312;stroke:#D74312}48.801%{fill:#8B210E;stroke:#8B210E}85.833%{opacity:1;fill:#8B210E;stroke:#8B210E}94.167%{opacity:0;fill:#8B210E;stroke:#8B210E}100.000%{opacity:0;fill:#8B210E;stroke:#8B210E}}@keyframes b17{0.000%{opacity:0;fill:#FFA928;stroke:#FFA928}21.325%{opacity:0;fill:#FFA928;stroke:#FFA928}22.575%{opacity:1;fill:#FFA928;stroke:#FFA928}26.325%{fill:#FF5A14;stroke:#FF5A14}36.325%{fill:#D74312;stroke:#D74312}49.658%{fill:#8D220E;stroke:#8D220E}85.833%{opacity:1;fill:#8D220E;stroke:#8D220E}94.167%{opacity:0;fill:#8D220E;stroke:#8D220E}100.000%{opacity:0;fill:#8D220E;stroke:#8D220E}}@keyframes b18{0.000%{opacity:0;fill:#FFA928;stroke:#FFA928}22.182%{opacity:0;fill:#FFA928;stroke:#FFA928}23.432%{opacity:1;fill:#FFA928;stroke:#FFA928}27.182%{fill:#FF5A14;stroke:#FF5A14}37.182%{fill:#D74312;stroke:#D74312}50.515%{fill:#90220E;stroke:#90220E}85.833%{opacity:1;fill:#90220E;stroke:#90220E}94.167%{opacity:0;fill:#90220E;stroke:#90220E}100.000%{opacity:0;fill:#90220E;stroke:#90220E}}@keyframes b19{0.000%{opacity:0;fill:#FFA928;stroke:#FFA928}23.039%{opacity:0;fill:#FFA928;stroke:#FFA928}24.289%{opacity:1;fill:#FFA928;stroke:#FFA928}28.039%{fill:#FF5A14;stroke:#FF5A14}38.039%{fill:#D74312;stroke:#D74312}51.373%{fill:#92230E;stroke:#92230E}85.833%{opacity:1;fill:#92230E;stroke:#92230E}94.167%{opacity:0;fill:#92230E;stroke:#92230E}100.000%{opacity:0;fill:#92230E;stroke:#92230E}}@keyframes b20{0.000%{opacity:0;fill:#FFA928;stroke:#FFA928}23.896%{opacity:0;fill:#FFA928;stroke:#FFA928}25.146%{opacity:1;fill:#FFA928;stroke:#FFA928}28.896%{fill:#FF5A14;stroke:#FF5A14}38.896%{fill:#D74312;stroke:#D74312}52.230%{fill:#95240E;stroke:#95240E}85.833%{opacity:1;fill:#95240E;stroke:#95240E}94.167%{opacity:0;fill:#95240E;stroke:#95240E}100.000%{opacity:0;fill:#95240E;stroke:#95240E}}@keyframes b21{0.000%{opacity:0;fill:#FFA928;stroke:#FFA928}24.753%{opacity:0;fill:#FFA928;stroke:#FFA928}26.003%{opacity:1;fill:#FFA928;stroke:#FFA928}29.753%{fill:#FF5A14;stroke:#FF5A14}39.753%{fill:#D74312;stroke:#D74312}53.087%{fill:#97240E;stroke:#97240E}85.833%{opacity:1;fill:#97240E;stroke:#97240E}94.167%{opacity:0;fill:#97240E;stroke:#97240E}100.000%{opacity:0;fill:#97240E;stroke:#97240E}}@keyframes b22{0.000%{opacity:0;fill:#FFA928;stroke:#FFA928}25.611%{opacity:0;fill:#FFA928;stroke:#FFA928}26.861%{opacity:1;fill:#FFA928;stroke:#FFA928}30.611%{fill:#FF5A14;stroke:#FF5A14}40.611%{fill:#D74312;stroke:#D74312}53.944%{fill:#9A250F;stroke:#9A250F}85.833%{opacity:1;fill:#9A250F;stroke:#9A250F}94.167%{opacity:0;fill:#9A250F;stroke:#9A250F}100.000%{opacity:0;fill:#9A250F;stroke:#9A250F}}@keyframes b23{0.000%{opacity:0;fill:#FFA928;stroke:#FFA928}26.468%{opacity:0;fill:#FFA928;stroke:#FFA928}27.718%{opacity:1;fill:#FFA928;stroke:#FFA928}31.468%{fill:#FF5A14;stroke:#FF5A14}41.468%{fill:#D74312;stroke:#D74312}54.801%{fill:#9C260F;stroke:#9C260F}85.833%{opacity:1;fill:#9C260F;stroke:#9C260F}94.167%{opacity:0;fill:#9C260F;stroke:#9C260F}100.000%{opacity:0;fill:#9C260F;stroke:#9C260F}}@keyframes b24{0.000%{opacity:0;fill:#FFA928;stroke:#FFA928}27.325%{opacity:0;fill:#FFA928;stroke:#FFA928}28.575%{opacity:1;fill:#FFA928;stroke:#FFA928}32.325%{fill:#FF5A14;stroke:#FF5A14}42.325%{fill:#D74312;stroke:#D74312}55.658%{fill:#9E260F;stroke:#9E260F}85.833%{opacity:1;fill:#9E260F;stroke:#9E260F}94.167%{opacity:0;fill:#9E260F;stroke:#9E260F}100.000%{opacity:0;fill:#9E260F;stroke:#9E260F}}@keyframes b25{0.000%{opacity:0;fill:#FFA928;stroke:#FFA928}28.182%{opacity:0;fill:#FFA928;stroke:#FFA928}29.432%{opacity:1;fill:#FFA928;stroke:#FFA928}33.182%{fill:#FF5A14;stroke:#FF5A14}43.182%{fill:#D74312;stroke:#D74312}56.515%{fill:#A1270F;stroke:#A1270F}85.833%{opacity:1;fill:#A1270F;stroke:#A1270F}94.167%{opacity:0;fill:#A1270F;stroke:#A1270F}100.000%{opacity:0;fill:#A1270F;stroke:#A1270F}}@keyframes b26{0.000%{opacity:0;fill:#FFA928;stroke:#FFA928}29.039%{opacity:0;fill:#FFA928;stroke:#FFA928}30.289%{opacity:1;fill:#FFA928;stroke:#FFA928}34.039%{fill:#FF5A14;stroke:#FF5A14}44.039%{fill:#D74312;stroke:#D74312}57.373%{fill:#A3270F;stroke:#A3270F}85.833%{opacity:1;fill:#A3270F;stroke:#A3270F}94.167%{opacity:0;fill:#A3270F;stroke:#A3270F}100.000%{opacity:0;fill:#A3270F;stroke:#A3270F}}@keyframes b27{0.000%{opacity:0;fill:#FFA928;stroke:#FFA928}29.896%{opacity:0;fill:#FFA928;stroke:#FFA928}31.146%{opacity:1;fill:#FFA928;stroke:#FFA928}34.896%{fill:#FF5A14;stroke:#FF5A14}44.896%{fill:#D74312;stroke:#D74312}58.230%{fill:#A6280F;stroke:#A6280F}85.833%{opacity:1;fill:#A6280F;stroke:#A6280F}94.167%{opacity:0;fill:#A6280F;stroke:#A6280F}100.000%{opacity:0;fill:#A6280F;stroke:#A6280F}}@keyframes b28{0.000%{opacity:0;fill:#FFA928;stroke:#FFA928}30.753%{opacity:0;fill:#FFA928;stroke:#FFA928}32.003%{opacity:1;fill:#FFA928;stroke:#FFA928}35.753%{fill:#FF5A14;stroke:#FF5A14}45.753%{fill:#D74312;stroke:#D74312}59.087%{fill:#A8290F;stroke:#A8290F}85.833%{opacity:1;fill:#A8290F;stroke:#A8290F}94.167%{opacity:0;fill:#A8290F;stroke:#A8290F}100.000%{opacity:0;fill:#A8290F;stroke:#A8290F}}@keyframes b29{0.000%{opacity:0;fill:#FFA928;stroke:#FFA928}31.611%{opacity:0;fill:#FFA928;stroke:#FFA928}32.861%{opacity:1;fill:#FFA928;stroke:#FFA928}36.611%{fill:#FF5A14;stroke:#FF5A14}46.611%{fill:#D74312;stroke:#D74312}59.944%{fill:#AB290F;stroke:#AB290F}85.833%{opacity:1;fill:#AB290F;stroke:#AB290F}94.167%{opacity:0;fill:#AB290F;stroke:#AB290F}100.000%{opacity:0;fill:#AB290F;stroke:#AB290F}}@keyframes b30{0.000%{opacity:0;fill:#FFA928;stroke:#FFA928}32.468%{opacity:0;fill:#FFA928;stroke:#FFA928}33.718%{opacity:1;fill:#FFA928;stroke:#FFA928}37.468%{fill:#FF5A14;stroke:#FF5A14}47.468%{fill:#D74312;stroke:#D74312}60.801%{fill:#AD2A0F;stroke:#AD2A0F}85.833%{opacity:1;fill:#AD2A0F;stroke:#AD2A0F}94.167%{opacity:0;fill:#AD2A0F;stroke:#AD2A0F}100.000%{opacity:0;fill:#AD2A0F;stroke:#AD2A0F}}@keyframes b31{0.000%{opacity:0;fill:#FFA928;stroke:#FFA928}33.325%{opacity:0;fill:#FFA928;stroke:#FFA928}34.575%{opacity:1;fill:#FFA928;stroke:#FFA928}38.325%{fill:#FF5A14;stroke:#FF5A14}48.325%{fill:#D74312;stroke:#D74312}61.658%{fill:#B02B0F;stroke:#B02B0F}85.833%{opacity:1;fill:#B02B0F;stroke:#B02B0F}94.167%{opacity:0;fill:#B02B0F;stroke:#B02B0F}100.000%{opacity:0;fill:#B02B0F;stroke:#B02B0F}}@keyframes b32{0.000%{opacity:0;fill:#FFA928;stroke:#FFA928}34.182%{opacity:0;fill:#FFA928;stroke:#FFA928}35.432%{opacity:1;fill:#FFA928;stroke:#FFA928}39.182%{fill:#FF5A14;stroke:#FF5A14}49.182%{fill:#D74312;stroke:#D74312}62.515%{fill:#B22C0F;stroke:#B22C0F}85.833%{opacity:1;fill:#B22C0F;stroke:#B22C0F}94.167%{opacity:0;fill:#B22C0F;stroke:#B22C0F}100.000%{opacity:0;fill:#B22C0F;stroke:#B22C0F}}@keyframes b33{0.000%{opacity:0;fill:#FFA928;stroke:#FFA928}35.039%{opacity:0;fill:#FFA928;stroke:#FFA928}36.289%{opacity:1;fill:#FFA928;stroke:#FFA928}40.039%{fill:#FF5A14;stroke:#FF5A14}50.039%{fill:#D74312;stroke:#D74312}63.373%{fill:#B42D0F;stroke:#B42D0F}85.833%{opacity:1;fill:#B42D0F;stroke:#B42D0F}94.167%{opacity:0;fill:#B42D0F;stroke:#B42D0F}100.000%{opacity:0;fill:#B42D0F;stroke:#B42D0F}}@keyframes b34{0.000%{opacity:0;fill:#FFA928;stroke:#FFA928}35.896%{opacity:0;fill:#FFA928;stroke:#FFA928}37.146%{opacity:1;fill:#FFA928;stroke:#FFA928}40.896%{fill:#FF5A14;stroke:#FF5A14}50.896%{fill:#D74312;stroke:#D74312}64.230%{fill:#B62E0F;stroke:#B62E0F}85.833%{opacity:1;fill:#B62E0F;stroke:#B62E0F}94.167%{opacity:0;fill:#B62E0F;stroke:#B62E0F}100.000%{opacity:0;fill:#B62E0F;stroke:#B62E0F}}@keyframes b35{0.000%{opacity:0;fill:#FFA928;stroke:#FFA928}36.753%{opacity:0;fill:#FFA928;stroke:#FFA928}38.003%{opacity:1;fill:#FFA928;stroke:#FFA928}41.753%{fill:#FF5A14;stroke:#FF5A14}51.753%{fill:#D74312;stroke:#D74312}65.087%{fill:#B93010;stroke:#B93010}85.833%{opacity:1;fill:#B93010;stroke:#B93010}94.167%{opacity:0;fill:#B93010;stroke:#B93010}100.000%{opacity:0;fill:#B93010;stroke:#B93010}}@keyframes scan{0.000%{transform:translateX(0);opacity:1}2.500%{transform:translateX(0);animation-timing-function:linear}17.500%{transform:translateX(1728px);opacity:1}17.583%{transform:translateX(1728px);opacity:0}100.000%{transform:translateX(1728px);opacity:0}}.scan{animation:scan 12.0s linear infinite}@keyframes ret{0.000%{opacity:0;transform:scale(2.4)}6.753%{opacity:0;transform:scale(2.4);animation-timing-function:cubic-bezier(.2,.8,.3,1)}10.503%{opacity:1;transform:scale(1)}45.000%{opacity:1;transform:scale(1)}49.167%{opacity:0;transform:scale(1)}100.000%{opacity:0;transform:scale(1)}}.ret{animation-name:ret}@keyframes k0{0.000%{opacity:0;transform:scale(.86)}14.728%{opacity:0;transform:scale(.86);animation-timing-function:cubic-bezier(.2,.7,.3,1)}20.562%{opacity:1;transform:scale(1)}85.833%{opacity:1;transform:scale(1)}91.667%{opacity:0;transform:scale(1)}100.000%{opacity:0;transform:scale(1)}}.k0{animation-name:k0}@keyframes k1{0.000%{opacity:0;transform:scale(.86)}23.372%{opacity:0;transform:scale(.86);animation-timing-function:cubic-bezier(.2,.7,.3,1)}29.206%{opacity:1;transform:scale(1)}85.833%{opacity:1;transform:scale(1)}91.667%{opacity:0;transform:scale(1)}100.000%{opacity:0;transform:scale(1)}}.k1{animation-name:k1}@keyframes k2{0.000%{opacity:0;transform:scale(.86)}32.170%{opacity:0;transform:scale(.86);animation-timing-function:cubic-bezier(.2,.7,.3,1)}38.003%{opacity:1;transform:scale(1)}85.833%{opacity:1;transform:scale(1)}91.667%{opacity:0;transform:scale(1)}100.000%{opacity:0;transform:scale(1)}}.k2{animation-name:k2}@keyframes hot{0.000%{fill:#F3F1EC}45.000%{fill:#F3F1EC}46.667%{fill:#FF5A14}85.833%{fill:#FF5A14}94.167%{fill:#F3F1EC}100.000%{fill:#F3F1EC}}.hot{animation:hot 12.0s linear infinite}@keyframes pulse{0.000%{opacity:0;transform:scale(1)}45.000%{opacity:0;transform:scale(1)}45.083%{opacity:.95;transform:scale(1)}49.083%{opacity:0;transform:scale(2)}49.250%{opacity:.95;transform:scale(1)}53.250%{opacity:0;transform:scale(2)}53.417%{opacity:.95;transform:scale(1)}57.417%{opacity:0;transform:scale(2)}57.500%{opacity:0;transform:scale(1)}60.000%{opacity:.9;transform:scale(1)}85.833%{opacity:.9;transform:scale(1)}94.167%{opacity:0;transform:scale(1)}100.000%{opacity:0;transform:scale(1)}}.a{animation-name:pulse}@keyframes draw{0.000%{stroke-dashoffset:1;opacity:1}57.500%{stroke-dashoffset:1;opacity:1;animation-timing-function:cubic-bezier(.45,0,.25,1)}67.500%{stroke-dashoffset:0;opacity:1}85.833%{stroke-dashoffset:0;opacity:1}92.500%{stroke-dashoffset:0;opacity:0}100.000%{stroke-dashoffset:1;opacity:0}}.r{stroke-dasharray:1;animation-name:draw}@keyframes flowvis{0.000%{opacity:0}66.667%{opacity:0}69.167%{opacity:1}85.833%{opacity:1}92.500%{opacity:0}100.000%{opacity:0}}@keyframes march{to{stroke-dashoffset:-22}}.w{animation:flowvis 12.0s linear infinite,march .8s linear infinite}@keyframes pin{0.000%{opacity:0;transform:scale(.3)}65.000%{opacity:0;transform:scale(.3);animation-timing-function:cubic-bezier(.2,.8,.3,1.3)}68.750%{opacity:1;transform:scale(1)}85.833%{opacity:1;transform:scale(1)}92.500%{opacity:0;transform:scale(1)}100.000%{opacity:0;transform:scale(1)}}.p{animation-name:pin}@keyframes s0{0.000%{fill:#3A3C42}2.500%{fill:#3A3C42}4.583%{fill:#FF5A14}14.253%{fill:#FF5A14}16.753%{fill:#F3F1EC}85.833%{fill:#F3F1EC}94.167%{fill:#3A3C42}100.000%{fill:#3A3C42}}.s0{animation:s0 12.0s linear infinite}@keyframes s1{0.000%{fill:#3A3C42}14.253%{fill:#3A3C42}16.337%{fill:#FF5A14}45.000%{fill:#FF5A14}47.500%{fill:#F3F1EC}85.833%{fill:#F3F1EC}94.167%{fill:#3A3C42}100.000%{fill:#3A3C42}}.s1{animation:s1 12.0s linear infinite}@keyframes s2{0.000%{fill:#3A3C42}45.000%{fill:#3A3C42}47.083%{fill:#FF5A14}57.500%{fill:#FF5A14}60.000%{fill:#F3F1EC}85.833%{fill:#F3F1EC}94.167%{fill:#3A3C42}100.000%{fill:#3A3C42}}.s2{animation:s2 12.0s linear infinite}@keyframes s3{0.000%{fill:#3A3C42}57.500%{fill:#3A3C42}59.583%{fill:#FF5A14}85.833%{fill:#FF5A14}88.333%{fill:#FF5A14}85.833%{fill:#FF5A14}94.167%{fill:#3A3C42}100.000%{fill:#3A3C42}}.s3{animation:s3 12.0s linear infinite}@keyframes wind{0%{opacity:0;transform:translate(0,0)}25%{opacity:1}75%{opacity:1}100%{opacity:0;transform:translate(107.6px,-22.9px)}}.wd{animation:wind 3.2s linear infinite}@media (prefers-reduced-motion:reduce){*{animation:none!important}.r{stroke-dasharray:none}.wd{display:none}}</style><defs><rect id="c" width="19" height="19" rx="3.5"/><clipPath id="map"><rect x="48" y="44" width="1504" height="416" rx="14"/></clipPath><linearGradient id="scan"><stop offset="0" stop-color="#F3F1EC" stop-opacity="0"/><stop offset=".92" stop-color="#F3F1EC" stop-opacity=".13"/><stop offset="1" stop-color="#F3F1EC" stop-opacity="0"/></linearGradient></defs><rect width="1600" height="620" rx="37.5" fill="#0B0B0C"/><g clip-path="url(#map)"><path d="M917.0 46.0 L917.8 52.0 L919.7 58.0 L922.7 64.0 L926.4 70.0 L930.4 76.0 L934.4 82.0 L937.7 88.0 L940.1 94.0 L940.9 100.0 L940.0 106.0 L937.1 112.0 L932.3 118.0 L925.6 124.0 L917.5 130.0 L908.2 136.0 L898.4 142.0 L888.5 148.0 L879.2 154.0 L870.9 160.0 L864.0 166.0 L858.9 172.0 L855.5 178.0 L853.9 184.0 L853.8 190.0 L855.0 196.0 L857.0 202.0 L859.4 208.0 L861.7 214.0 L863.5 220.0 L864.4 226.0 L864.4 232.0 L863.3 238.0 L861.2 244.0 L858.5 250.0 L855.3 256.0 L852.3 262.0 L849.7 268.0 L848.2 274.0 L847.9 280.0 L849.2 286.0 L852.3 292.0 L857.0 298.0 L863.2 304.0 L870.6 310.0 L878.7 316.0 L886.9 322.0 L894.8 328.0 L901.8 334.0 L907.4 340.0 L911.3 346.0 L913.2 352.0 L913.0 358.0 L910.9 364.0 L907.2 370.0 L902.1 376.0 L896.2 382.0 L889.9 388.0 L883.8 394.0 L878.2 400.0 L873.6 406.0 L870.0 412.0 L867.7 418.0 L866.4 424.0 L866.0 430.0 L866.1 436.0 L866.3 442.0 L866.2 448.0" fill="none" stroke="#1F2B34" stroke-width="7" stroke-linecap="round"/><path fill="#1C262E" d="M1361.8 312a2.2 2.2 0 1 0 4.4 0a2.2 2.2 0 1 0-4.4 0M1385.8 312a2.2 2.2 0 1 0 4.4 0a2.2 2.2 0 1 0-4.4 0M1409.8 312a2.2 2.2 0 1 0 4.4 0a2.2 2.2 0 1 0-4.4 0M1433.8 312a2.2 2.2 0 1 0 4.4 0a2.2 2.2 0 1 0-4.4 0M1313.8 336a2.2 2.2 0 1 0 4.4 0a2.2 2.2 0 1 0-4.4 0M1337.8 336a2.2 2.2 0 1 0 4.4 0a2.2 2.2 0 1 0-4.4 0M1361.8 336a2.2 2.2 0 1 0 4.4 0a2.2 2.2 0 1 0-4.4 0M1385.8 336a2.2 2.2 0 1 0 4.4 0a2.2 2.2 0 1 0-4.4 0M1409.8 336a2.2 2.2 0 1 0 4.4 0a2.2 2.2 0 1 0-4.4 0M1433.8 336a2.2 2.2 0 1 0 4.4 0a2.2 2.2 0 1 0-4.4 0M1457.8 336a2.2 2.2 0 1 0 4.4 0a2.2 2.2 0 1 0-4.4 0M1481.8 336a2.2 2.2 0 1 0 4.4 0a2.2 2.2 0 1 0-4.4 0M1505.8 336a2.2 2.2 0 1 0 4.4 0a2.2 2.2 0 1 0-4.4 0M1529.8 336a2.2 2.2 0 1 0 4.4 0a2.2 2.2 0 1 0-4.4 0M1097.8 360a2.2 2.2 0 1 0 4.4 0a2.2 2.2 0 1 0-4.4 0M1121.8 360a2.2 2.2 0 1 0 4.4 0a2.2 2.2 0 1 0-4.4 0M1145.8 360a2.2 2.2 0 1 0 4.4 0a2.2 2.2 0 1 0-4.4 0M1169.8 360a2.2 2.2 0 1 0 4.4 0a2.2 2.2 0 1 0-4.4 0M1193.8 360a2.2 2.2 0 1 0 4.4 0a2.2 2.2 0 1 0-4.4 0M1217.8 360a2.2 2.2 0 1 0 4.4 0a2.2 2.2 0 1 0-4.4 0M1241.8 360a2.2 2.2 0 1 0 4.4 0a2.2 2.2 0 1 0-4.4 0M1265.8 360a2.2 2.2 0 1 0 4.4 0a2.2 2.2 0 1 0-4.4 0M1289.8 360a2.2 2.2 0 1 0 4.4 0a2.2 2.2 0 1 0-4.4 0M1313.8 360a2.2 2.2 0 1 0 4.4 0a2.2 2.2 0 1 0-4.4 0M1337.8 360a2.2 2.2 0 1 0 4.4 0a2.2 2.2 0 1 0-4.4 0M1361.8 360a2.2 2.2 0 1 0 4.4 0a2.2 2.2 0 1 0-4.4 0M1385.8 360a2.2 2.2 0 1 0 4.4 0a2.2 2.2 0 1 0-4.4 0M1409.8 360a2.2 2.2 0 1 0 4.4 0a2.2 2.2 0 1 0-4.4 0M1433.8 360a2.2 2.2 0 1 0 4.4 0a2.2 2.2 0 1 0-4.4 0M1457.8 360a2.2 2.2 0 1 0 4.4 0a2.2 2.2 0 1 0-4.4 0M1481.8 360a2.2 2.2 0 1 0 4.4 0a2.2 2.2 0 1 0-4.4 0M1505.8 360a2.2 2.2 0 1 0 4.4 0a2.2 2.2 0 1 0-4.4 0M1529.8 360a2.2 2.2 0 1 0 4.4 0a2.2 2.2 0 1 0-4.4 0M1073.8 384a2.2 2.2 0 1 0 4.4 0a2.2 2.2 0 1 0-4.4 0M1097.8 384a2.2 2.2 0 1 0 4.4 0a2.2 2.2 0 1 0-4.4 0M1121.8 384a2.2 2.2 0 1 0 4.4 0a2.2 2.2 0 1 0-4.4 0M1145.8 384a2.2 2.2 0 1 0 4.4 0a2.2 2.2 0 1 0-4.4 0M1169.8 384a2.2 2.2 0 1 0 4.4 0a2.2 2.2 0 1 0-4.4 0M1193.8 384a2.2 2.2 0 1 0 4.4 0a2.2 2.2 0 1 0-4.4 0M1217.8 384a2.2 2.2 0 1 0 4.4 0a2.2 2.2 0 1 0-4.4 0M1241.8 384a2.2 2.2 0 1 0 4.4 0a2.2 2.2 0 1 0-4.4 0M1265.8 384a2.2 2.2 0 1 0 4.4 0a2.2 2.2 0 1 0-4.4 0M1289.8 384a2.2 2.2 0 1 0 4.4 0a2.2 2.2 0 1 0-4.4 0M1313.8 384a2.2 2.2 0 1 0 4.4 0a2.2 2.2 0 1 0-4.4 0M1337.8 384a2.2 2.2 0 1 0 4.4 0a2.2 2.2 0 1 0-4.4 0M1361.8 384a2.2 2.2 0 1 0 4.4 0a2.2 2.2 0 1 0-4.4 0M1385.8 384a2.2 2.2 0 1 0 4.4 0a2.2 2.2 0 1 0-4.4 0M1409.8 384a2.2 2.2 0 1 0 4.4 0a2.2 2.2 0 1 0-4.4 0M1433.8 384a2.2 2.2 0 1 0 4.4 0a2.2 2.2 0 1 0-4.4 0M1457.8 384a2.2 2.2 0 1 0 4.4 0a2.2 2.2 0 1 0-4.4 0M1481.8 384a2.2 2.2 0 1 0 4.4 0a2.2 2.2 0 1 0-4.4 0M1505.8 384a2.2 2.2 0 1 0 4.4 0a2.2 2.2 0 1 0-4.4 0M1529.8 384a2.2 2.2 0 1 0 4.4 0a2.2 2.2 0 1 0-4.4 0M1025.8 408a2.2 2.2 0 1 0 4.4 0a2.2 2.2 0 1 0-4.4 0M1049.8 408a2.2 2.2 0 1 0 4.4 0a2.2 2.2 0 1 0-4.4 0M1073.8 408a2.2 2.2 0 1 0 4.4 0a2.2 2.2 0 1 0-4.4 0M1097.8 408a2.2 2.2 0 1 0 4.4 0a2.2 2.2 0 1 0-4.4 0M1121.8 408a2.2 2.2 0 1 0 4.4 0a2.2 2.2 0 1 0-4.4 0M1145.8 408a2.2 2.2 0 1 0 4.4 0a2.2 2.2 0 1 0-4.4 0M1169.8 408a2.2 2.2 0 1 0 4.4 0a2.2 2.2 0 1 0-4.4 0M1193.8 408a2.2 2.2 0 1 0 4.4 0a2.2 2.2 0 1 0-4.4 0M1217.8 408a2.2 2.2 0 1 0 4.4 0a2.2 2.2 0 1 0-4.4 0M1241.8 408a2.2 2.2 0 1 0 4.4 0a2.2 2.2 0 1 0-4.4 0M1265.8 408a2.2 2.2 0 1 0 4.4 0a2.2 2.2 0 1 0-4.4 0M1289.8 408a2.2 2.2 0 1 0 4.4 0a2.2 2.2 0 1 0-4.4 0M1313.8 408a2.2 2.2 0 1 0 4.4 0a2.2 2.2 0 1 0-4.4 0M1337.8 408a2.2 2.2 0 1 0 4.4 0a2.2 2.2 0 1 0-4.4 0M1361.8 408a2.2 2.2 0 1 0 4.4 0a2.2 2.2 0 1 0-4.4 0M1385.8 408a2.2 2.2 0 1 0 4.4 0a2.2 2.2 0 1 0-4.4 0M1409.8 408a2.2 2.2 0 1 0 4.4 0a2.2 2.2 0 1 0-4.4 0M1433.8 408a2.2 2.2 0 1 0 4.4 0a2.2 2.2 0 1 0-4.4 0M1457.8 408a2.2 2.2 0 1 0 4.4 0a2.2 2.2 0 1 0-4.4 0M1481.8 408a2.2 2.2 0 1 0 4.4 0a2.2 2.2 0 1 0-4.4 0M1505.8 408a2.2 2.2 0 1 0 4.4 0a2.2 2.2 0 1 0-4.4 0M1529.8 408a2.2 2.2 0 1 0 4.4 0a2.2 2.2 0 1 0-4.4 0M809.8 432a2.2 2.2 0 1 0 4.4 0a2.2 2.2 0 1 0-4.4 0M929.8 432a2.2 2.2 0 1 0 4.4 0a2.2 2.2 0 1 0-4.4 0M953.8 432a2.2 2.2 0 1 0 4.4 0a2.2 2.2 0 1 0-4.4 0M977.8 432a2.2 2.2 0 1 0 4.4 0a2.2 2.2 0 1 0-4.4 0M1001.8 432a2.2 2.2 0 1 0 4.4 0a2.2 2.2 0 1 0-4.4 0M1025.8 432a2.2 2.2 0 1 0 4.4 0a2.2 2.2 0 1 0-4.4 0M1049.8 432a2.2 2.2 0 1 0 4.4 0a2.2 2.2 0 1 0-4.4 0M1073.8 432a2.2 2.2 0 1 0 4.4 0a2.2 2.2 0 1 0-4.4 0M1097.8 432a2.2 2.2 0 1 0 4.4 0a2.2 2.2 0 1 0-4.4 0M1121.8 432a2.2 2.2 0 1 0 4.4 0a2.2 2.2 0 1 0-4.4 0M1145.8 432a2.2 2.2 0 1 0 4.4 0a2.2 2.2 0 1 0-4.4 0M1169.8 432a2.2 2.2 0 1 0 4.4 0a2.2 2.2 0 1 0-4.4 0M1193.8 432a2.2 2.2 0 1 0 4.4 0a2.2 2.2 0 1 0-4.4 0M1217.8 432a2.2 2.2 0 1 0 4.4 0a2.2 2.2 0 1 0-4.4 0M1241.8 432a2.2 2.2 0 1 0 4.4 0a2.2 2.2 0 1 0-4.4 0M1265.8 432a2.2 2.2 0 1 0 4.4 0a2.2 2.2 0 1 0-4.4 0M1289.8 432a2.2 2.2 0 1 0 4.4 0a2.2 2.2 0 1 0-4.4 0M1313.8 432a2.2 2.2 0 1 0 4.4 0a2.2 2.2 0 1 0-4.4 0M1337.8 432a2.2 2.2 0 1 0 4.4 0a2.2 2.2 0 1 0-4.4 0M1361.8 432a2.2 2.2 0 1 0 4.4 0a2.2 2.2 0 1 0-4.4 0M1385.8 432a2.2 2.2 0 1 0 4.4 0a2.2 2.2 0 1 0-4.4 0M1409.8 432a2.2 2.2 0 1 0 4.4 0a2.2 2.2 0 1 0-4.4 0M1433.8 432a2.2 2.2 0 1 0 4.4 0a2.2 2.2 0 1 0-4.4 0M1457.8 432a2.2 2.2 0 1 0 4.4 0a2.2 2.2 0 1 0-4.4 0M1481.8 432a2.2 2.2 0 1 0 4.4 0a2.2 2.2 0 1 0-4.4 0M1505.8 432a2.2 2.2 0 1 0 4.4 0a2.2 2.2 0 1 0-4.4 0M1529.8 432a2.2 2.2 0 1 0 4.4 0a2.2 2.2 0 1 0-4.4 0"/><path fill="#15161A" stroke="#15161A" stroke-width="7" stroke-linejoin="round" d="M901.5 65.5h12v12h-12zM901.5 89.5h12v12h-12zM949.5 89.5h12v12h-12zM1381.5 89.5h12v12h-12zM1405.5 89.5h12v12h-12zM1381.5 113.5h12v12h-12zM1213.5 209.5h12v12h-12zM1261.5 233.5h12v12h-12zM1285.5 233.5h12v12h-12zM613.5 257.5h12v12h-12zM589.5 281.5h12v12h-12zM589.5 305.5h12v12h-12zM613.5 329.5h12v12h-12zM637.5 329.5h12v12h-12zM469.5 425.5h12v12h-12z"/><path fill="#17181D" stroke="#17181D" stroke-width="7" stroke-linejoin="round" d="M229.5 65.5h12v12h-12zM253.5 65.5h12v12h-12zM877.5 65.5h12v12h-12zM949.5 65.5h12v12h-12zM1357.5 65.5h12v12h-12zM1405.5 65.5h12v12h-12zM469.5 89.5h12v12h-12zM733.5 89.5h12v12h-12zM1429.5 89.5h12v12h-12zM253.5 113.5h12v12h-12zM301.5 113.5h12v12h-12zM733.5 113.5h12v12h-12zM949.5 113.5h12v12h-12zM1405.5 113.5h12v12h-12zM1453.5 113.5h12v12h-12zM229.5 137.5h12v12h-12zM253.5 137.5h12v12h-12zM277.5 137.5h12v12h-12zM733.5 137.5h12v12h-12zM757.5 137.5h12v12h-12zM949.5 137.5h12v12h-12zM1213.5 137.5h12v12h-12zM1477.5 137.5h12v12h-12zM61.5 161.5h12v12h-12zM229.5 161.5h12v12h-12zM301.5 161.5h12v12h-12zM733.5 161.5h12v12h-12zM757.5 161.5h12v12h-12zM1213.5 161.5h12v12h-12zM1429.5 161.5h12v12h-12zM85.5 185.5h12v12h-12zM301.5 185.5h12v12h-12zM757.5 185.5h12v12h-12zM781.5 185.5h12v12h-12zM109.5 209.5h12v12h-12zM133.5 209.5h12v12h-12zM589.5 209.5h12v12h-12zM1261.5 209.5h12v12h-12zM61.5 233.5h12v12h-12zM109.5 233.5h12v12h-12zM133.5 233.5h12v12h-12zM565.5 233.5h12v12h-12zM757.5 233.5h12v12h-12zM781.5 233.5h12v12h-12zM61.5 257.5h12v12h-12zM109.5 257.5h12v12h-12zM541.5 257.5h12v12h-12zM565.5 257.5h12v12h-12zM589.5 257.5h12v12h-12zM637.5 257.5h12v12h-12zM781.5 257.5h12v12h-12zM1069.5 257.5h12v12h-12zM1093.5 257.5h12v12h-12zM1261.5 257.5h12v12h-12zM133.5 281.5h12v12h-12zM613.5 281.5h12v12h-12zM637.5 281.5h12v12h-12zM1093.5 281.5h12v12h-12zM565.5 305.5h12v12h-12zM613.5 305.5h12v12h-12zM1069.5 305.5h12v12h-12zM1117.5 305.5h12v12h-12zM1045.5 329.5h12v12h-12zM1117.5 329.5h12v12h-12zM1165.5 329.5h12v12h-12zM397.5 353.5h12v12h-12zM661.5 353.5h12v12h-12zM1069.5 353.5h12v12h-12zM421.5 377.5h12v12h-12zM445.5 377.5h12v12h-12zM661.5 377.5h12v12h-12zM421.5 401.5h12v12h-12zM445.5 401.5h12v12h-12zM469.5 401.5h12v12h-12zM421.5 425.5h12v12h-12zM493.5 425.5h12v12h-12zM901.5 425.5h12v12h-12z"/><path fill="#1A1B1F" stroke="#1A1B1F" stroke-width="7" stroke-linejoin="round" d="M205.5 65.5h12v12h-12zM277.5 65.5h12v12h-12zM301.5 65.5h12v12h-12zM445.5 65.5h12v12h-12zM469.5 65.5h12v12h-12zM709.5 65.5h12v12h-12zM1333.5 65.5h12v12h-12zM1381.5 65.5h12v12h-12zM229.5 89.5h12v12h-12zM253.5 89.5h12v12h-12zM397.5 89.5h12v12h-12zM445.5 89.5h12v12h-12zM709.5 89.5h12v12h-12zM757.5 89.5h12v12h-12zM829.5 89.5h12v12h-12zM973.5 89.5h12v12h-12zM1453.5 89.5h12v12h-12zM205.5 113.5h12v12h-12zM229.5 113.5h12v12h-12zM277.5 113.5h12v12h-12zM469.5 113.5h12v12h-12zM685.5 113.5h12v12h-12zM757.5 113.5h12v12h-12zM781.5 113.5h12v12h-12zM973.5 113.5h12v12h-12zM1189.5 113.5h12v12h-12zM1213.5 113.5h12v12h-12zM1429.5 113.5h12v12h-12zM1477.5 113.5h12v12h-12zM181.5 137.5h12v12h-12zM301.5 137.5h12v12h-12zM325.5 137.5h12v12h-12zM709.5 137.5h12v12h-12zM781.5 137.5h12v12h-12zM925.5 137.5h12v12h-12zM1237.5 137.5h12v12h-12zM1381.5 137.5h12v12h-12zM1405.5 137.5h12v12h-12zM1429.5 137.5h12v12h-12zM1453.5 137.5h12v12h-12zM85.5 161.5h12v12h-12zM109.5 161.5h12v12h-12zM253.5 161.5h12v12h-12zM277.5 161.5h12v12h-12zM685.5 161.5h12v12h-12zM709.5 161.5h12v12h-12zM781.5 161.5h12v12h-12zM805.5 161.5h12v12h-12zM973.5 161.5h12v12h-12zM1261.5 161.5h12v12h-12zM1357.5 161.5h12v12h-12zM1501.5 161.5h12v12h-12zM61.5 185.5h12v12h-12zM109.5 185.5h12v12h-12zM157.5 185.5h12v12h-12zM181.5 185.5h12v12h-12zM205.5 185.5h12v12h-12zM229.5 185.5h12v12h-12zM277.5 185.5h12v12h-12zM325.5 185.5h12v12h-12zM517.5 185.5h12v12h-12zM541.5 185.5h12v12h-12zM589.5 185.5h12v12h-12zM709.5 185.5h12v12h-12zM733.5 185.5h12v12h-12zM1213.5 185.5h12v12h-12zM1261.5 185.5h12v12h-12zM1285.5 185.5h12v12h-12zM1405.5 185.5h12v12h-12zM1453.5 185.5h12v12h-12zM85.5 209.5h12v12h-12zM301.5 209.5h12v12h-12zM565.5 209.5h12v12h-12zM613.5 209.5h12v12h-12zM637.5 209.5h12v12h-12zM685.5 209.5h12v12h-12zM733.5 209.5h12v12h-12zM757.5 209.5h12v12h-12zM781.5 209.5h12v12h-12zM805.5 209.5h12v12h-12zM829.5 209.5h12v12h-12zM1045.5 209.5h12v12h-12zM1189.5 209.5h12v12h-12zM1237.5 209.5h12v12h-12zM1285.5 209.5h12v12h-12zM1501.5 209.5h12v12h-12zM85.5 233.5h12v12h-12zM325.5 233.5h12v12h-12zM589.5 233.5h12v12h-12zM661.5 233.5h12v12h-12zM829.5 233.5h12v12h-12zM1237.5 233.5h12v12h-12zM85.5 257.5h12v12h-12zM133.5 257.5h12v12h-12zM157.5 257.5h12v12h-12zM805.5 257.5h12v12h-12zM1237.5 257.5h12v12h-12zM61.5 281.5h12v12h-12zM85.5 281.5h12v12h-12zM109.5 281.5h12v12h-12zM157.5 281.5h12v12h-12zM349.5 281.5h12v12h-12zM565.5 281.5h12v12h-12zM685.5 281.5h12v12h-12zM1117.5 281.5h12v12h-12zM1141.5 281.5h12v12h-12zM1261.5 281.5h12v12h-12zM1525.5 281.5h12v12h-12zM61.5 305.5h12v12h-12zM421.5 305.5h12v12h-12zM1045.5 305.5h12v12h-12zM1093.5 305.5h12v12h-12zM1141.5 305.5h12v12h-12zM1189.5 305.5h12v12h-12zM1261.5 305.5h12v12h-12zM1285.5 305.5h12v12h-12zM1333.5 305.5h12v12h-12zM1525.5 305.5h12v12h-12zM157.5 329.5h12v12h-12zM205.5 329.5h12v12h-12zM373.5 329.5h12v12h-12zM397.5 329.5h12v12h-12zM493.5 329.5h12v12h-12zM565.5 329.5h12v12h-12zM661.5 329.5h12v12h-12zM1069.5 329.5h12v12h-12zM1093.5 329.5h12v12h-12zM421.5 353.5h12v12h-12zM445.5 353.5h12v12h-12zM493.5 353.5h12v12h-12zM613.5 353.5h12v12h-12zM637.5 353.5h12v12h-12zM373.5 377.5h12v12h-12zM469.5 377.5h12v12h-12zM637.5 377.5h12v12h-12zM373.5 401.5h12v12h-12zM493.5 401.5h12v12h-12zM517.5 401.5h12v12h-12zM709.5 401.5h12v12h-12zM901.5 401.5h12v12h-12zM925.5 401.5h12v12h-12zM445.5 425.5h12v12h-12zM517.5 425.5h12v12h-12z"/><path fill="#1C1E22" stroke="#1C1E22" stroke-width="7" stroke-linejoin="round" d="M181.5 65.5h12v12h-12zM349.5 65.5h12v12h-12zM373.5 65.5h12v12h-12zM397.5 65.5h12v12h-12zM421.5 65.5h12v12h-12zM661.5 65.5h12v12h-12zM685.5 65.5h12v12h-12zM733.5 65.5h12v12h-12zM805.5 65.5h12v12h-12zM829.5 65.5h12v12h-12zM853.5 65.5h12v12h-12zM973.5 65.5h12v12h-12zM1021.5 65.5h12v12h-12zM1141.5 65.5h12v12h-12zM1429.5 65.5h12v12h-12zM1453.5 65.5h12v12h-12zM1477.5 65.5h12v12h-12zM181.5 89.5h12v12h-12zM205.5 89.5h12v12h-12zM277.5 89.5h12v12h-12zM301.5 89.5h12v12h-12zM349.5 89.5h12v12h-12zM517.5 89.5h12v12h-12zM685.5 89.5h12v12h-12zM781.5 89.5h12v12h-12zM853.5 89.5h12v12h-12zM877.5 89.5h12v12h-12zM1189.5 89.5h12v12h-12zM1213.5 89.5h12v12h-12zM1309.5 89.5h12v12h-12zM1333.5 89.5h12v12h-12zM1357.5 89.5h12v12h-12zM61.5 113.5h12v12h-12zM397.5 113.5h12v12h-12zM421.5 113.5h12v12h-12zM493.5 113.5h12v12h-12zM661.5 113.5h12v12h-12zM709.5 113.5h12v12h-12zM877.5 113.5h12v12h-12zM901.5 113.5h12v12h-12zM1165.5 113.5h12v12h-12zM1237.5 113.5h12v12h-12zM1309.5 113.5h12v12h-12zM61.5 137.5h12v12h-12zM85.5 137.5h12v12h-12zM157.5 137.5h12v12h-12zM205.5 137.5h12v12h-12zM469.5 137.5h12v12h-12zM829.5 137.5h12v12h-12zM1189.5 137.5h12v12h-12zM1333.5 137.5h12v12h-12zM1357.5 137.5h12v12h-12zM133.5 161.5h12v12h-12zM157.5 161.5h12v12h-12zM517.5 161.5h12v12h-12zM565.5 161.5h12v12h-12zM589.5 161.5h12v12h-12zM637.5 161.5h12v12h-12zM661.5 161.5h12v12h-12zM1021.5 161.5h12v12h-12zM1165.5 161.5h12v12h-12zM1189.5 161.5h12v12h-12zM1237.5 161.5h12v12h-12zM1285.5 161.5h12v12h-12zM1309.5 161.5h12v12h-12zM1333.5 161.5h12v12h-12zM1381.5 161.5h12v12h-12zM1405.5 161.5h12v12h-12zM1453.5 161.5h12v12h-12zM133.5 185.5h12v12h-12zM349.5 185.5h12v12h-12zM565.5 185.5h12v12h-12zM661.5 185.5h12v12h-12zM685.5 185.5h12v12h-12zM805.5 185.5h12v12h-12zM973.5 185.5h12v12h-12zM1237.5 185.5h12v12h-12zM1333.5 185.5h12v12h-12zM1357.5 185.5h12v12h-12zM1477.5 185.5h12v12h-12zM61.5 209.5h12v12h-12zM157.5 209.5h12v12h-12zM205.5 209.5h12v12h-12zM277.5 209.5h12v12h-12zM349.5 209.5h12v12h-12zM517.5 209.5h12v12h-12zM541.5 209.5h12v12h-12zM709.5 209.5h12v12h-12zM973.5 209.5h12v12h-12zM997.5 209.5h12v12h-12zM1021.5 209.5h12v12h-12zM1069.5 209.5h12v12h-12zM1165.5 209.5h12v12h-12zM1309.5 209.5h12v12h-12zM1333.5 209.5h12v12h-12zM1381.5 209.5h12v12h-12zM1453.5 209.5h12v12h-12zM349.5 233.5h12v12h-12zM541.5 233.5h12v12h-12zM613.5 233.5h12v12h-12zM637.5 233.5h12v12h-12zM709.5 233.5h12v12h-12zM733.5 233.5h12v12h-12zM805.5 233.5h12v12h-12zM1021.5 233.5h12v12h-12zM1165.5 233.5h12v12h-12zM1189.5 233.5h12v12h-12zM1213.5 233.5h12v12h-12zM1309.5 233.5h12v12h-12zM1333.5 233.5h12v12h-12zM1453.5 233.5h12v12h-12zM1477.5 233.5h12v12h-12zM301.5 257.5h12v12h-12zM373.5 257.5h12v12h-12zM709.5 257.5h12v12h-12zM1021.5 257.5h12v12h-12zM1117.5 257.5h12v12h-12zM1141.5 257.5h12v12h-12zM1165.5 257.5h12v12h-12zM1213.5 257.5h12v12h-12zM1285.5 257.5h12v12h-12zM1309.5 257.5h12v12h-12zM1333.5 257.5h12v12h-12zM1453.5 257.5h12v12h-12zM1477.5 257.5h12v12h-12zM1501.5 257.5h12v12h-12zM1525.5 257.5h12v12h-12zM181.5 281.5h12v12h-12zM205.5 281.5h12v12h-12zM397.5 281.5h12v12h-12zM661.5 281.5h12v12h-12zM709.5 281.5h12v12h-12zM781.5 281.5h12v12h-12zM805.5 281.5h12v12h-12zM1045.5 281.5h12v12h-12zM1069.5 281.5h12v12h-12zM1165.5 281.5h12v12h-12zM1189.5 281.5h12v12h-12zM1213.5 281.5h12v12h-12zM1237.5 281.5h12v12h-12zM1285.5 281.5h12v12h-12zM1309.5 281.5h12v12h-12zM1333.5 281.5h12v12h-12zM1357.5 281.5h12v12h-12zM85.5 305.5h12v12h-12zM109.5 305.5h12v12h-12zM133.5 305.5h12v12h-12zM157.5 305.5h12v12h-12zM181.5 305.5h12v12h-12zM205.5 305.5h12v12h-12zM373.5 305.5h12v12h-12zM397.5 305.5h12v12h-12zM541.5 305.5h12v12h-12zM637.5 305.5h12v12h-12zM661.5 305.5h12v12h-12zM901.5 305.5h12v12h-12zM997.5 305.5h12v12h-12zM1165.5 305.5h12v12h-12zM1501.5 305.5h12v12h-12zM61.5 329.5h12v12h-12zM85.5 329.5h12v12h-12zM109.5 329.5h12v12h-12zM181.5 329.5h12v12h-12zM421.5 329.5h12v12h-12zM469.5 329.5h12v12h-12zM517.5 329.5h12v12h-12zM589.5 329.5h12v12h-12zM685.5 329.5h12v12h-12zM877.5 329.5h12v12h-12zM1141.5 329.5h12v12h-12zM1189.5 329.5h12v12h-12zM1213.5 329.5h12v12h-12zM1261.5 329.5h12v12h-12zM61.5 353.5h12v12h-12zM205.5 353.5h12v12h-12zM469.5 353.5h12v12h-12zM565.5 353.5h12v12h-12zM589.5 353.5h12v12h-12zM685.5 353.5h12v12h-12zM853.5 353.5h12v12h-12zM877.5 353.5h12v12h-12zM925.5 353.5h12v12h-12zM973.5 353.5h12v12h-12zM1021.5 353.5h12v12h-12zM349.5 377.5h12v12h-12zM397.5 377.5h12v12h-12zM493.5 377.5h12v12h-12zM541.5 377.5h12v12h-12zM589.5 377.5h12v12h-12zM685.5 377.5h12v12h-12zM853.5 377.5h12v12h-12zM973.5 377.5h12v12h-12zM181.5 401.5h12v12h-12zM229.5 401.5h12v12h-12zM253.5 401.5h12v12h-12zM349.5 401.5h12v12h-12zM397.5 401.5h12v12h-12zM613.5 401.5h12v12h-12zM637.5 401.5h12v12h-12zM685.5 401.5h12v12h-12zM949.5 401.5h12v12h-12zM973.5 401.5h12v12h-12zM229.5 425.5h12v12h-12zM253.5 425.5h12v12h-12zM277.5 425.5h12v12h-12zM877.5 425.5h12v12h-12z"/><path fill="#1F2025" stroke="#1F2025" stroke-width="7" stroke-linejoin="round" d="M61.5 65.5h12v12h-12zM325.5 65.5h12v12h-12zM493.5 65.5h12v12h-12zM613.5 65.5h12v12h-12zM757.5 65.5h12v12h-12zM997.5 65.5h12v12h-12zM1093.5 65.5h12v12h-12zM1117.5 65.5h12v12h-12zM1165.5 65.5h12v12h-12zM1309.5 65.5h12v12h-12zM1525.5 65.5h12v12h-12zM85.5 89.5h12v12h-12zM325.5 89.5h12v12h-12zM421.5 89.5h12v12h-12zM637.5 89.5h12v12h-12zM661.5 89.5h12v12h-12zM805.5 89.5h12v12h-12zM1021.5 89.5h12v12h-12zM1117.5 89.5h12v12h-12zM1141.5 89.5h12v12h-12zM1165.5 89.5h12v12h-12zM1261.5 89.5h12v12h-12zM1477.5 89.5h12v12h-12zM1501.5 89.5h12v12h-12zM85.5 113.5h12v12h-12zM157.5 113.5h12v12h-12zM181.5 113.5h12v12h-12zM325.5 113.5h12v12h-12zM349.5 113.5h12v12h-12zM445.5 113.5h12v12h-12zM805.5 113.5h12v12h-12zM829.5 113.5h12v12h-12zM853.5 113.5h12v12h-12zM997.5 113.5h12v12h-12zM1021.5 113.5h12v12h-12zM1117.5 113.5h12v12h-12zM1285.5 113.5h12v12h-12zM1333.5 113.5h12v12h-12zM1357.5 113.5h12v12h-12zM109.5 137.5h12v12h-12zM133.5 137.5h12v12h-12zM397.5 137.5h12v12h-12zM493.5 137.5h12v12h-12zM517.5 137.5h12v12h-12zM637.5 137.5h12v12h-12zM685.5 137.5h12v12h-12zM805.5 137.5h12v12h-12zM973.5 137.5h12v12h-12zM997.5 137.5h12v12h-12zM1021.5 137.5h12v12h-12zM1261.5 137.5h12v12h-12zM1285.5 137.5h12v12h-12zM1309.5 137.5h12v12h-12zM181.5 161.5h12v12h-12zM205.5 161.5h12v12h-12zM325.5 161.5h12v12h-12zM349.5 161.5h12v12h-12zM373.5 161.5h12v12h-12zM493.5 161.5h12v12h-12zM541.5 161.5h12v12h-12zM613.5 161.5h12v12h-12zM829.5 161.5h12v12h-12zM877.5 161.5h12v12h-12zM901.5 161.5h12v12h-12zM925.5 161.5h12v12h-12zM949.5 161.5h12v12h-12zM997.5 161.5h12v12h-12zM1477.5 161.5h12v12h-12zM253.5 185.5h12v12h-12zM469.5 185.5h12v12h-12zM493.5 185.5h12v12h-12zM613.5 185.5h12v12h-12zM829.5 185.5h12v12h-12zM901.5 185.5h12v12h-12zM925.5 185.5h12v12h-12zM949.5 185.5h12v12h-12zM997.5 185.5h12v12h-12zM1045.5 185.5h12v12h-12zM1189.5 185.5h12v12h-12zM1309.5 185.5h12v12h-12zM1381.5 185.5h12v12h-12zM1429.5 185.5h12v12h-12zM253.5 209.5h12v12h-12zM325.5 209.5h12v12h-12zM493.5 209.5h12v12h-12zM661.5 209.5h12v12h-12zM949.5 209.5h12v12h-12zM1093.5 209.5h12v12h-12zM1117.5 209.5h12v12h-12zM1357.5 209.5h12v12h-12zM1405.5 209.5h12v12h-12zM1429.5 209.5h12v12h-12zM1477.5 209.5h12v12h-12zM157.5 233.5h12v12h-12zM229.5 233.5h12v12h-12zM277.5 233.5h12v12h-12zM301.5 233.5h12v12h-12zM373.5 233.5h12v12h-12zM493.5 233.5h12v12h-12zM517.5 233.5h12v12h-12zM685.5 233.5h12v12h-12zM997.5 233.5h12v12h-12zM1045.5 233.5h12v12h-12zM1069.5 233.5h12v12h-12zM1117.5 233.5h12v12h-12zM1141.5 233.5h12v12h-12zM1405.5 233.5h12v12h-12zM1501.5 233.5h12v12h-12zM1525.5 233.5h12v12h-12zM181.5 257.5h12v12h-12zM229.5 257.5h12v12h-12zM277.5 257.5h12v12h-12zM325.5 257.5h12v12h-12zM349.5 257.5h12v12h-12zM397.5 257.5h12v12h-12zM445.5 257.5h12v12h-12zM517.5 257.5h12v12h-12zM661.5 257.5h12v12h-12zM733.5 257.5h12v12h-12zM757.5 257.5h12v12h-12zM829.5 257.5h12v12h-12zM973.5 257.5h12v12h-12zM997.5 257.5h12v12h-12zM1045.5 257.5h12v12h-12zM1189.5 257.5h12v12h-12zM1381.5 257.5h12v12h-12zM1429.5 257.5h12v12h-12zM301.5 281.5h12v12h-12zM325.5 281.5h12v12h-12zM421.5 281.5h12v12h-12zM445.5 281.5h12v12h-12zM493.5 281.5h12v12h-12zM517.5 281.5h12v12h-12zM541.5 281.5h12v12h-12zM733.5 281.5h12v12h-12zM877.5 281.5h12v12h-12zM901.5 281.5h12v12h-12zM229.5 305.5h12v12h-12zM253.5 305.5h12v12h-12zM349.5 305.5h12v12h-12zM445.5 305.5h12v12h-12zM493.5 305.5h12v12h-12zM685.5 305.5h12v12h-12zM829.5 305.5h12v12h-12zM925.5 305.5h12v12h-12zM973.5 305.5h12v12h-12zM1021.5 305.5h12v12h-12zM1213.5 305.5h12v12h-12zM1237.5 305.5h12v12h-12zM1309.5 305.5h12v12h-12zM133.5 329.5h12v12h-12zM325.5 329.5h12v12h-12zM445.5 329.5h12v12h-12zM541.5 329.5h12v12h-12zM973.5 329.5h12v12h-12zM1021.5 329.5h12v12h-12zM1285.5 329.5h12v12h-12zM85.5 353.5h12v12h-12zM133.5 353.5h12v12h-12zM157.5 353.5h12v12h-12zM181.5 353.5h12v12h-12zM229.5 353.5h12v12h-12zM253.5 353.5h12v12h-12zM325.5 353.5h12v12h-12zM373.5 353.5h12v12h-12zM517.5 353.5h12v12h-12zM829.5 353.5h12v12h-12zM1045.5 353.5h12v12h-12zM61.5 377.5h12v12h-12zM109.5 377.5h12v12h-12zM133.5 377.5h12v12h-12zM157.5 377.5h12v12h-12zM253.5 377.5h12v12h-12zM277.5 377.5h12v12h-12zM301.5 377.5h12v12h-12zM325.5 377.5h12v12h-12zM517.5 377.5h12v12h-12zM565.5 377.5h12v12h-12zM613.5 377.5h12v12h-12zM709.5 377.5h12v12h-12zM925.5 377.5h12v12h-12zM949.5 377.5h12v12h-12zM997.5 377.5h12v12h-12zM1021.5 377.5h12v12h-12zM1045.5 377.5h12v12h-12zM205.5 401.5h12v12h-12zM277.5 401.5h12v12h-12zM301.5 401.5h12v12h-12zM661.5 401.5h12v12h-12zM997.5 401.5h12v12h-12zM205.5 425.5h12v12h-12zM325.5 425.5h12v12h-12zM373.5 425.5h12v12h-12zM397.5 425.5h12v12h-12zM541.5 425.5h12v12h-12zM565.5 425.5h12v12h-12zM589.5 425.5h12v12h-12zM733.5 425.5h12v12h-12z"/><path fill="#212327" stroke="#212327" stroke-width="7" stroke-linejoin="round" d="M85.5 65.5h12v12h-12zM157.5 65.5h12v12h-12zM517.5 65.5h12v12h-12zM565.5 65.5h12v12h-12zM589.5 65.5h12v12h-12zM781.5 65.5h12v12h-12zM1069.5 65.5h12v12h-12zM1189.5 65.5h12v12h-12zM1213.5 65.5h12v12h-12zM1261.5 65.5h12v12h-12zM1285.5 65.5h12v12h-12zM1501.5 65.5h12v12h-12zM133.5 89.5h12v12h-12zM157.5 89.5h12v12h-12zM373.5 89.5h12v12h-12zM493.5 89.5h12v12h-12zM565.5 89.5h12v12h-12zM997.5 89.5h12v12h-12zM1069.5 89.5h12v12h-12zM1093.5 89.5h12v12h-12zM1237.5 89.5h12v12h-12zM1285.5 89.5h12v12h-12zM1525.5 89.5h12v12h-12zM109.5 113.5h12v12h-12zM133.5 113.5h12v12h-12zM373.5 113.5h12v12h-12zM517.5 113.5h12v12h-12zM541.5 113.5h12v12h-12zM589.5 113.5h12v12h-12zM637.5 113.5h12v12h-12zM1141.5 113.5h12v12h-12zM1261.5 113.5h12v12h-12zM1501.5 113.5h12v12h-12zM1525.5 113.5h12v12h-12zM349.5 137.5h12v12h-12zM421.5 137.5h12v12h-12zM445.5 137.5h12v12h-12zM541.5 137.5h12v12h-12zM661.5 137.5h12v12h-12zM853.5 137.5h12v12h-12zM1045.5 137.5h12v12h-12zM1069.5 137.5h12v12h-12zM1093.5 137.5h12v12h-12zM1141.5 137.5h12v12h-12zM1165.5 137.5h12v12h-12zM1501.5 137.5h12v12h-12zM1525.5 137.5h12v12h-12zM1069.5 161.5h12v12h-12zM1525.5 161.5h12v12h-12zM373.5 185.5h12v12h-12zM445.5 185.5h12v12h-12zM637.5 185.5h12v12h-12zM1021.5 185.5h12v12h-12zM1165.5 185.5h12v12h-12zM1501.5 185.5h12v12h-12zM1525.5 185.5h12v12h-12zM181.5 209.5h12v12h-12zM229.5 209.5h12v12h-12zM373.5 209.5h12v12h-12zM877.5 209.5h12v12h-12zM901.5 209.5h12v12h-12zM1141.5 209.5h12v12h-12zM1525.5 209.5h12v12h-12zM181.5 233.5h12v12h-12zM205.5 233.5h12v12h-12zM397.5 233.5h12v12h-12zM421.5 233.5h12v12h-12zM445.5 233.5h12v12h-12zM901.5 233.5h12v12h-12zM925.5 233.5h12v12h-12zM949.5 233.5h12v12h-12zM973.5 233.5h12v12h-12zM1093.5 233.5h12v12h-12zM1357.5 233.5h12v12h-12zM1429.5 233.5h12v12h-12zM205.5 257.5h12v12h-12zM253.5 257.5h12v12h-12zM493.5 257.5h12v12h-12zM685.5 257.5h12v12h-12zM901.5 257.5h12v12h-12zM1357.5 257.5h12v12h-12zM229.5 281.5h12v12h-12zM253.5 281.5h12v12h-12zM373.5 281.5h12v12h-12zM469.5 281.5h12v12h-12zM757.5 281.5h12v12h-12zM949.5 281.5h12v12h-12zM997.5 281.5h12v12h-12zM1021.5 281.5h12v12h-12zM1429.5 281.5h12v12h-12zM1453.5 281.5h12v12h-12zM1501.5 281.5h12v12h-12zM277.5 305.5h12v12h-12zM469.5 305.5h12v12h-12zM517.5 305.5h12v12h-12zM709.5 305.5h12v12h-12zM733.5 305.5h12v12h-12zM757.5 305.5h12v12h-12zM805.5 305.5h12v12h-12zM949.5 305.5h12v12h-12zM1453.5 305.5h12v12h-12zM1477.5 305.5h12v12h-12zM229.5 329.5h12v12h-12zM301.5 329.5h12v12h-12zM349.5 329.5h12v12h-12zM709.5 329.5h12v12h-12zM733.5 329.5h12v12h-12zM781.5 329.5h12v12h-12zM829.5 329.5h12v12h-12zM853.5 329.5h12v12h-12zM925.5 329.5h12v12h-12zM949.5 329.5h12v12h-12zM997.5 329.5h12v12h-12zM1237.5 329.5h12v12h-12zM109.5 353.5h12v12h-12zM349.5 353.5h12v12h-12zM541.5 353.5h12v12h-12zM709.5 353.5h12v12h-12zM733.5 353.5h12v12h-12zM757.5 353.5h12v12h-12zM949.5 353.5h12v12h-12zM997.5 353.5h12v12h-12zM181.5 377.5h12v12h-12zM205.5 377.5h12v12h-12zM229.5 377.5h12v12h-12zM829.5 377.5h12v12h-12zM61.5 401.5h12v12h-12zM85.5 401.5h12v12h-12zM541.5 401.5h12v12h-12zM565.5 401.5h12v12h-12zM589.5 401.5h12v12h-12zM61.5 425.5h12v12h-12zM85.5 425.5h12v12h-12zM157.5 425.5h12v12h-12zM301.5 425.5h12v12h-12zM349.5 425.5h12v12h-12zM613.5 425.5h12v12h-12zM661.5 425.5h12v12h-12zM685.5 425.5h12v12h-12zM709.5 425.5h12v12h-12zM757.5 425.5h12v12h-12zM829.5 425.5h12v12h-12z"/><path fill="#23252A" stroke="#23252A" stroke-width="7" stroke-linejoin="round" d="M133.5 65.5h12v12h-12zM541.5 65.5h12v12h-12zM637.5 65.5h12v12h-12zM1045.5 65.5h12v12h-12zM1237.5 65.5h12v12h-12zM61.5 89.5h12v12h-12zM109.5 89.5h12v12h-12zM541.5 89.5h12v12h-12zM589.5 89.5h12v12h-12zM1045.5 89.5h12v12h-12zM565.5 113.5h12v12h-12zM613.5 113.5h12v12h-12zM1045.5 113.5h12v12h-12zM1069.5 113.5h12v12h-12zM373.5 137.5h12v12h-12zM565.5 137.5h12v12h-12zM589.5 137.5h12v12h-12zM613.5 137.5h12v12h-12zM421.5 161.5h12v12h-12zM445.5 161.5h12v12h-12zM469.5 161.5h12v12h-12zM1045.5 161.5h12v12h-12zM1141.5 161.5h12v12h-12zM397.5 185.5h12v12h-12zM877.5 185.5h12v12h-12zM1069.5 185.5h12v12h-12zM1093.5 185.5h12v12h-12zM1117.5 185.5h12v12h-12zM1141.5 185.5h12v12h-12zM445.5 209.5h12v12h-12zM925.5 209.5h12v12h-12zM253.5 233.5h12v12h-12zM469.5 233.5h12v12h-12zM877.5 233.5h12v12h-12zM1381.5 233.5h12v12h-12zM421.5 257.5h12v12h-12zM469.5 257.5h12v12h-12zM877.5 257.5h12v12h-12zM925.5 257.5h12v12h-12zM949.5 257.5h12v12h-12zM1405.5 257.5h12v12h-12zM277.5 281.5h12v12h-12zM925.5 281.5h12v12h-12zM973.5 281.5h12v12h-12zM1381.5 281.5h12v12h-12zM1405.5 281.5h12v12h-12zM1477.5 281.5h12v12h-12zM301.5 305.5h12v12h-12zM325.5 305.5h12v12h-12zM781.5 305.5h12v12h-12zM253.5 329.5h12v12h-12zM277.5 329.5h12v12h-12zM805.5 329.5h12v12h-12zM277.5 353.5h12v12h-12zM301.5 353.5h12v12h-12zM781.5 353.5h12v12h-12zM85.5 377.5h12v12h-12zM733.5 377.5h12v12h-12zM805.5 377.5h12v12h-12zM157.5 401.5h12v12h-12zM325.5 401.5h12v12h-12zM733.5 401.5h12v12h-12zM757.5 401.5h12v12h-12zM805.5 401.5h12v12h-12zM829.5 401.5h12v12h-12zM133.5 425.5h12v12h-12zM181.5 425.5h12v12h-12zM637.5 425.5h12v12h-12zM781.5 425.5h12v12h-12z"/><path fill="#26282D" stroke="#26282D" stroke-width="7" stroke-linejoin="round" d="M109.5 65.5h12v12h-12zM613.5 89.5h12v12h-12zM1093.5 113.5h12v12h-12zM1117.5 137.5h12v12h-12zM397.5 161.5h12v12h-12zM1093.5 161.5h12v12h-12zM1117.5 161.5h12v12h-12zM421.5 185.5h12v12h-12zM397.5 209.5h12v12h-12zM421.5 209.5h12v12h-12zM469.5 209.5h12v12h-12zM757.5 329.5h12v12h-12zM805.5 353.5h12v12h-12zM757.5 377.5h12v12h-12zM781.5 377.5h12v12h-12zM109.5 401.5h12v12h-12zM133.5 401.5h12v12h-12zM781.5 401.5h12v12h-12zM109.5 425.5h12v12h-12z"/><g stroke="#2C2E34" stroke-width="3" stroke-linecap="round" fill="none"><path d="M66.0 408.0 L852.3 408.0"/><path d="M764.0 312.0 L764.0 408.0"/><path d="M308.0 192.0 L1534.0 192.0"/><path d="M1292.0 192.0 L1292.0 288.0"/><path d="M308.0 192.0 L308.0 408.0"/></g><path class="f b0" fill="#5E150B" stroke="#5E150B" stroke-width="7" stroke-linejoin="round" d="M517.5 281.5h12v12h-12z"/><path class="f b2" fill="#5F150B" stroke="#5F150B" stroke-width="7" stroke-linejoin="round" d="M541.5 281.5h12v12h-12z"/><path class="f b5" fill="#62160B" stroke="#62160B" stroke-width="7" stroke-linejoin="round" d="M565.5 281.5h12v12h-12z"/><path class="f b6" fill="#65170C" stroke="#65170C" stroke-width="7" stroke-linejoin="round" d="M565.5 257.5h12v12h-12zM589.5 257.5h12v12h-12zM589.5 281.5h12v12h-12z"/><path class="f b7" fill="#67170C" stroke="#67170C" stroke-width="7" stroke-linejoin="round" d="M541.5 257.5h12v12h-12zM613.5 257.5h12v12h-12z"/><path class="f b8" fill="#6A180C" stroke="#6A180C" stroke-width="7" stroke-linejoin="round" d="M613.5 281.5h12v12h-12z"/><path class="f b9" fill="#6B180C" stroke="#6B180C" stroke-width="7" stroke-linejoin="round" d="M637.5 257.5h12v12h-12z"/><path class="f b10" fill="#701A0C" stroke="#701A0C" stroke-width="7" stroke-linejoin="round" d="M613.5 233.5h12v12h-12z"/><path class="f b11" fill="#721A0D" stroke="#721A0D" stroke-width="7" stroke-linejoin="round" d="M589.5 233.5h12v12h-12zM637.5 233.5h12v12h-12zM661.5 233.5h12v12h-12zM517.5 257.5h12v12h-12zM661.5 257.5h12v12h-12zM637.5 281.5h12v12h-12z"/><path class="f b12" fill="#761C0D" stroke="#761C0D" stroke-width="7" stroke-linejoin="round" d="M685.5 233.5h12v12h-12zM685.5 257.5h12v12h-12zM661.5 281.5h12v12h-12zM541.5 305.5h12v12h-12zM565.5 305.5h12v12h-12z"/><path class="f b13" fill="#7A1C0D" stroke="#7A1C0D" stroke-width="7" stroke-linejoin="round" d="M565.5 233.5h12v12h-12zM589.5 305.5h12v12h-12z"/><path class="f b14" fill="#7D1D0D" stroke="#7D1D0D" stroke-width="7" stroke-linejoin="round" d="M709.5 233.5h12v12h-12zM709.5 257.5h12v12h-12zM685.5 281.5h12v12h-12zM613.5 305.5h12v12h-12z"/><path class="f b15" fill="#811E0E" stroke="#811E0E" stroke-width="7" stroke-linejoin="round" d="M637.5 209.5h12v12h-12zM661.5 209.5h12v12h-12zM685.5 209.5h12v12h-12zM733.5 233.5h12v12h-12zM517.5 305.5h12v12h-12zM637.5 305.5h12v12h-12z"/><path class="f b16" fill="#86200E" stroke="#86200E" stroke-width="7" stroke-linejoin="round" d="M613.5 209.5h12v12h-12zM709.5 209.5h12v12h-12zM733.5 209.5h12v12h-12zM733.5 257.5h12v12h-12zM709.5 281.5h12v12h-12z"/><path class="f b17" fill="#8B210E" stroke="#8B210E" stroke-width="7" stroke-linejoin="round" d="M541.5 233.5h12v12h-12zM757.5 233.5h12v12h-12zM757.5 257.5h12v12h-12zM733.5 281.5h12v12h-12zM661.5 305.5h12v12h-12z"/><path class="f b18" fill="#90220E" stroke="#90220E" stroke-width="7" stroke-linejoin="round" d="M757.5 209.5h12v12h-12zM781.5 209.5h12v12h-12zM781.5 233.5h12v12h-12zM493.5 281.5h12v12h-12zM685.5 305.5h12v12h-12z"/><path class="f b19" fill="#96240E" stroke="#96240E" stroke-width="7" stroke-linejoin="round" d="M685.5 185.5h12v12h-12zM709.5 185.5h12v12h-12zM757.5 185.5h12v12h-12zM805.5 209.5h12v12h-12zM805.5 233.5h12v12h-12zM781.5 257.5h12v12h-12z"/><path class="f b20" fill="#9A250F" stroke="#9A250F" stroke-width="7" stroke-linejoin="round" d="M661.5 185.5h12v12h-12zM733.5 185.5h12v12h-12zM781.5 185.5h12v12h-12zM589.5 209.5h12v12h-12zM829.5 209.5h12v12h-12zM805.5 257.5h12v12h-12zM757.5 281.5h12v12h-12zM709.5 305.5h12v12h-12z"/><path class="f b21" fill="#A1270F" stroke="#A1270F" stroke-width="7" stroke-linejoin="round" d="M805.5 185.5h12v12h-12zM829.5 233.5h12v12h-12zM493.5 257.5h12v12h-12zM781.5 281.5h12v12h-12zM493.5 305.5h12v12h-12z"/><path class="f b22" fill="#A7280F" stroke="#A7280F" stroke-width="7" stroke-linejoin="round" d="M637.5 185.5h12v12h-12zM829.5 185.5h12v12h-12zM517.5 233.5h12v12h-12zM829.5 257.5h12v12h-12zM733.5 305.5h12v12h-12zM565.5 329.5h12v12h-12zM589.5 329.5h12v12h-12zM613.5 329.5h12v12h-12z"/><path class="f b23" fill="#AC2A0F" stroke="#AC2A0F" stroke-width="7" stroke-linejoin="round" d="M757.5 161.5h12v12h-12zM565.5 209.5h12v12h-12zM805.5 281.5h12v12h-12zM637.5 329.5h12v12h-12z"/><path class="f b24" fill="#B32C0F" stroke="#B32C0F" stroke-width="7" stroke-linejoin="round" d="M733.5 161.5h12v12h-12zM781.5 161.5h12v12h-12zM805.5 161.5h12v12h-12zM829.5 161.5h12v12h-12zM877.5 185.5h12v12h-12zM877.5 209.5h12v12h-12zM877.5 233.5h12v12h-12zM757.5 305.5h12v12h-12zM541.5 329.5h12v12h-12zM661.5 329.5h12v12h-12zM685.5 329.5h12v12h-12z"/><path class="f b25" fill="#BA3010" stroke="#BA3010" stroke-width="7" stroke-linejoin="round" d="M709.5 161.5h12v12h-12zM877.5 161.5h12v12h-12zM613.5 185.5h12v12h-12zM901.5 185.5h12v12h-12zM901.5 209.5h12v12h-12zM901.5 233.5h12v12h-12zM877.5 257.5h12v12h-12zM781.5 305.5h12v12h-12z"/><path class="f b26" fill="#BE3310" stroke="#BE3310" stroke-width="7" stroke-linejoin="round" d="M685.5 161.5h12v12h-12zM541.5 209.5h12v12h-12zM709.5 329.5h12v12h-12z"/><path class="f b27" fill="#C43710" stroke="#C43710" stroke-width="7" stroke-linejoin="round" d="M901.5 161.5h12v12h-12zM925.5 185.5h12v12h-12zM949.5 185.5h12v12h-12zM925.5 209.5h12v12h-12zM949.5 209.5h12v12h-12zM925.5 233.5h12v12h-12zM901.5 257.5h12v12h-12zM805.5 305.5h12v12h-12zM733.5 329.5h12v12h-12z"/><path class="f b28" fill="#CC3B11" stroke="#CC3B11" stroke-width="7" stroke-linejoin="round" d="M757.5 137.5h12v12h-12zM805.5 137.5h12v12h-12zM829.5 137.5h12v12h-12zM661.5 161.5h12v12h-12zM925.5 161.5h12v12h-12zM949.5 161.5h12v12h-12zM925.5 257.5h12v12h-12zM877.5 281.5h12v12h-12zM829.5 305.5h12v12h-12z"/><path class="f b29" fill="#D23F11" stroke="#D23F11" stroke-width="7" stroke-linejoin="round" d="M733.5 137.5h12v12h-12zM781.5 137.5h12v12h-12zM853.5 137.5h12v12h-12zM973.5 161.5h12v12h-12zM589.5 185.5h12v12h-12zM973.5 209.5h12v12h-12zM949.5 233.5h12v12h-12zM901.5 281.5h12v12h-12zM517.5 329.5h12v12h-12z"/><path class="f b30" fill="#DA4412" stroke="#DA4412" stroke-width="7" stroke-linejoin="round" d="M925.5 137.5h12v12h-12zM997.5 161.5h12v12h-12zM973.5 185.5h12v12h-12zM997.5 185.5h12v12h-12zM517.5 209.5h12v12h-12zM997.5 209.5h12v12h-12zM757.5 329.5h12v12h-12z"/><path class="f b31" fill="#DF4712" stroke="#DF4712" stroke-width="7" stroke-linejoin="round" d="M853.5 113.5h12v12h-12zM949.5 137.5h12v12h-12zM973.5 137.5h12v12h-12zM637.5 161.5h12v12h-12zM493.5 233.5h12v12h-12zM973.5 233.5h12v12h-12zM949.5 257.5h12v12h-12zM925.5 281.5h12v12h-12zM781.5 329.5h12v12h-12zM805.5 329.5h12v12h-12z"/><path class="f b32" fill="#E84D13" stroke="#E84D13" stroke-width="7" stroke-linejoin="round" d="M829.5 113.5h12v12h-12zM877.5 113.5h12v12h-12zM901.5 113.5h12v12h-12zM709.5 137.5h12v12h-12zM997.5 137.5h12v12h-12zM1021.5 161.5h12v12h-12zM1021.5 185.5h12v12h-12zM1021.5 209.5h12v12h-12zM997.5 233.5h12v12h-12zM973.5 257.5h12v12h-12zM493.5 329.5h12v12h-12zM685.5 353.5h12v12h-12z"/><path class="f b33" fill="#EF5113" stroke="#EF5113" stroke-width="7" stroke-linejoin="round" d="M805.5 113.5h12v12h-12zM949.5 113.5h12v12h-12zM973.5 113.5h12v12h-12zM685.5 137.5h12v12h-12zM1021.5 137.5h12v12h-12zM1045.5 137.5h12v12h-12zM1045.5 161.5h12v12h-12zM565.5 185.5h12v12h-12zM1045.5 185.5h12v12h-12zM1045.5 209.5h12v12h-12zM1021.5 233.5h12v12h-12zM997.5 257.5h12v12h-12zM949.5 281.5h12v12h-12zM901.5 305.5h12v12h-12zM829.5 329.5h12v12h-12zM589.5 353.5h12v12h-12zM613.5 353.5h12v12h-12zM637.5 353.5h12v12h-12zM661.5 353.5h12v12h-12z"/><path class="f b34" fill="#F75514" stroke="#F75514" stroke-width="7" stroke-linejoin="round" d="M781.5 113.5h12v12h-12zM997.5 113.5h12v12h-12zM1069.5 137.5h12v12h-12zM613.5 161.5h12v12h-12zM1069.5 161.5h12v12h-12zM469.5 257.5h12v12h-12zM469.5 281.5h12v12h-12zM973.5 281.5h12v12h-12zM925.5 305.5h12v12h-12zM853.5 329.5h12v12h-12zM709.5 353.5h12v12h-12z"/><path class="f b35" fill="#FD5914" stroke="#FD5914" stroke-width="7" stroke-linejoin="round" d="M1021.5 113.5h12v12h-12zM1069.5 185.5h12v12h-12zM1045.5 233.5h12v12h-12zM1021.5 257.5h12v12h-12zM565.5 353.5h12v12h-12zM733.5 353.5h12v12h-12zM757.5 353.5h12v12h-12z"/><path class="wd" style="animation-delay:-0.00s" d="M190 330 l33.3 -7.1" stroke="#F3F1EC" stroke-opacity=".16" stroke-width="2.5" stroke-linecap="round"/><path class="wd" style="animation-delay:-0.47s" d="M300 210 l33.3 -7.1" stroke="#F3F1EC" stroke-opacity=".16" stroke-width="2.5" stroke-linecap="round"/><path class="wd" style="animation-delay:-0.94s" d="M420 120 l33.3 -7.1" stroke="#F3F1EC" stroke-opacity=".16" stroke-width="2.5" stroke-linecap="round"/><path class="wd" style="animation-delay:-1.41s" d="M640 400 l33.3 -7.1" stroke="#F3F1EC" stroke-opacity=".16" stroke-width="2.5" stroke-linecap="round"/><path class="wd" style="animation-delay:-1.88s" d="M1080 370 l33.3 -7.1" stroke="#F3F1EC" stroke-opacity=".16" stroke-width="2.5" stroke-linecap="round"/><path class="wd" style="animation-delay:-2.35s" d="M1230 190 l33.3 -7.1" stroke="#F3F1EC" stroke-opacity=".16" stroke-width="2.5" stroke-linecap="round"/><path class="wd" style="animation-delay:-2.82s" d="M1380 300 l33.3 -7.1" stroke="#F3F1EC" stroke-opacity=".16" stroke-width="2.5" stroke-linecap="round"/><g class="scan" style="opacity:0"><rect x="-184" y="44" width="220" height="416" fill="url(#scan)"/><rect x="34" y="44" width="2" height="416" fill="#F3F1EC" fill-opacity=".5"/></g></g><g class="k k0" style="transform-origin:524.0px 288.0px;transform-box:view-box"><path d="M700.4 288.0 L685.8 295.1 L671.0 300.9 L656.8 305.5 L643.5 309.1 L631.3 311.8 L620.3 313.8 L610.4 315.3 L601.7 316.3 L594.0 317.0 L587.2 317.5 L581.2 317.8 L575.9 317.9 L571.1 318.0 L566.9 318.0 L563.0 317.9 L559.6 317.8 L556.4 317.7 L553.5 317.5 L550.8 317.2 L548.3 316.9 L546.0 316.6 L543.8 316.3 L541.8 315.9 L539.8 315.5 L538.1 315.0 L536.4 314.6 L534.8 314.1 L533.3 313.6 L531.9 313.2 L530.6 312.8 L529.4 312.4 L528.2 312.0 L527.1 311.7 L526.0 311.4 L525.0 311.1 L524.0 310.9 L523.0 310.7 L522.0 310.6 L521.1 310.4 L520.1 310.3 L519.1 310.1 L518.1 309.9 L517.1 309.8 L516.2 309.5 L515.2 309.2 L514.3 308.9 L513.3 308.5 L512.4 308.0 L511.6 307.5 L510.8 306.9 L510.1 306.2 L509.4 305.4 L508.8 304.6 L508.2 303.8 L507.8 302.9 L507.4 302.0 L507.0 301.0 L506.8 300.1 L506.6 299.1 L506.4 298.2 L506.2 297.2 L506.1 296.3 L506.0 295.5 L505.9 294.6 L505.8 293.7 L505.7 292.9 L505.5 292.1 L505.4 291.3 L505.2 290.5 L505.0 289.7 L504.9 288.8 L504.7 288.0 L504.5 287.1 L504.4 286.3 L504.3 285.4 L504.2 284.5 L504.2 283.6 L504.2 282.7 L504.3 281.8 L504.4 280.9 L504.6 280.0 L504.8 279.1 L505.1 278.2 L505.5 277.3 L505.9 276.5 L506.4 275.6 L506.8 274.8 L507.3 274.0 L507.9 273.2 L508.4 272.4 L509.0 271.7 L509.6 270.9 L510.2 270.1 L510.9 269.2 L511.5 268.4 L512.2 267.5 L512.9 266.6 L513.6 265.7 L514.4 264.8 L515.2 263.9 L516.1 263.0 L517.0 262.0 L518.0 261.1 L519.1 260.2 L520.2 259.3 L521.4 258.4 L522.7 257.6 L524.0 256.8 L525.4 256.0 L526.9 255.3 L528.4 254.6 L530.0 253.9 L531.7 253.3 L533.5 252.6 L535.4 251.9 L537.4 251.2 L539.6 250.3 L542.0 249.4 L544.6 248.4 L547.6 247.1 L550.9 245.7 L554.7 244.1 L559.1 242.3 L564.1 240.2 L569.9 237.9 L576.7 235.3 L584.5 232.6 L593.5 229.7 L603.9 226.7 L615.7 223.8 L629.0 221.1 L643.7 218.9 L659.6 217.4 L676.1 217.1 L692.7 218.1 L708.2 221.0 L721.6 225.7 L731.5 232.4 L737.2 240.7 L737.9 250.3 L733.8 260.4 L725.5 270.4 L714.0 279.7Z" fill="none" stroke="#F3F1EC" stroke-opacity=".5" stroke-width="2" stroke-dasharray="6 8"/><rect x="746.7" y="208.6" width="53.9" height="32" rx="8" fill="#0B0B0C" fill-opacity=".86"/><path d="M766.93 226.42H763.06V230.40H758.55V226.42H754.66V222.17H758.55V218.16H763.06V222.17H766.93ZM768.30 219.44V215.02H775.69V232.56H770.77V219.44ZM792.37 224.72V232.56H787.66V225.34Q787.66 224.19 787.06 223.53Q786.46 222.87 785.46 222.87Q784.40 222.87 783.80 223.53Q783.20 224.19 783.20 225.34V232.56H778.50V214.80H783.20V221.02Q783.82 220.11 784.89 219.54Q785.96 218.98 787.35 218.98Q789.66 218.98 791.01 220.53Q792.37 222.08 792.37 224.72Z" fill="#F3F1EC" fill-opacity=".85"/></g><g class="k k1" style="transform-origin:524.0px 288.0px;transform-box:view-box"><path d="M839.6 288.0 L813.5 300.6 L787.1 311.0 L761.6 319.3 L737.8 325.7 L716.0 330.6 L696.3 334.2 L678.7 336.8 L663.1 338.6 L649.3 339.9 L637.1 340.7 L626.3 341.3 L616.8 341.6 L608.3 341.7 L600.7 341.7 L593.8 341.6 L587.6 341.4 L581.9 341.1 L576.7 340.7 L571.9 340.3 L567.5 339.8 L563.3 339.2 L559.4 338.6 L555.8 337.9 L552.4 337.1 L549.2 336.3 L546.2 335.5 L543.3 334.7 L540.7 333.9 L538.2 333.1 L535.9 332.3 L533.7 331.6 L531.6 331.0 L529.6 330.4 L527.7 329.8 L525.8 329.4 L524.0 329.0 L522.2 328.7 L520.5 328.4 L518.7 328.1 L517.0 327.8 L515.2 327.6 L513.5 327.3 L511.7 326.9 L510.0 326.5 L508.3 326.0 L506.6 325.4 L504.9 324.7 L503.3 323.8 L501.8 322.9 L500.4 321.8 L499.0 320.5 L497.8 319.2 L496.7 317.7 L495.8 316.2 L494.9 314.6 L494.2 313.0 L493.6 311.3 L493.2 309.6 L492.8 307.9 L492.5 306.2 L492.2 304.6 L492.0 302.9 L491.8 301.3 L491.6 299.8 L491.4 298.3 L491.2 296.8 L491.0 295.3 L490.7 293.9 L490.4 292.4 L490.1 291.0 L489.8 289.5 L489.5 288.0 L489.2 286.5 L488.9 284.9 L488.7 283.4 L488.6 281.8 L488.5 280.1 L488.5 278.5 L488.7 276.9 L488.9 275.2 L489.2 273.6 L489.7 272.0 L490.2 270.4 L490.9 268.9 L491.6 267.4 L492.4 265.9 L493.3 264.4 L494.2 263.0 L495.2 261.6 L496.2 260.2 L497.2 258.8 L498.3 257.3 L499.4 255.9 L500.5 254.4 L501.6 252.9 L502.9 251.4 L504.1 249.8 L505.4 248.2 L506.8 246.5 L508.3 244.9 L509.9 243.2 L511.5 241.5 L513.3 239.8 L515.2 238.2 L517.2 236.6 L519.4 235.0 L521.6 233.6 L524.0 232.1 L526.5 230.8 L529.1 229.5 L531.9 228.3 L534.7 227.1 L537.8 225.9 L541.0 224.7 L544.4 223.4 L548.0 222.1 L551.9 220.6 L556.2 219.0 L560.9 217.1 L566.2 214.9 L572.2 212.4 L579.0 209.5 L586.8 206.2 L595.7 202.5 L606.2 198.3 L618.3 193.7 L632.3 188.8 L648.4 183.6 L667.0 178.3 L688.2 173.0 L712.0 168.3 L738.3 164.3 L766.6 161.7 L796.2 161.1 L825.8 163.0 L853.6 168.0 L877.5 176.5 L895.4 188.5 L905.5 203.4 L906.8 220.5 L899.5 238.6 L884.6 256.4 L864.0 273.2Z" fill="none" stroke="#F3F1EC" stroke-opacity=".5" stroke-width="2" stroke-dasharray="6 8"/><rect x="915.5" y="172.7" width="59.2" height="32" rx="8" fill="#0B0B0C" fill-opacity=".86"/><path d="M935.66 190.55H931.80V194.54H927.29V190.55H923.40V186.31H927.29V182.30H931.80V186.31H935.66ZM943.85 178.77Q945.70 178.77 947.00 179.41Q948.31 180.04 948.98 181.13Q949.66 182.23 949.66 183.59Q949.66 185.23 948.86 186.20Q948.07 187.17 947.06 187.51V187.60Q949.97 188.68 949.97 191.73Q949.97 193.24 949.27 194.39Q948.58 195.55 947.26 196.19Q945.94 196.84 944.11 196.84Q941.11 196.84 939.37 195.39Q937.63 193.94 937.56 190.94H942.14Q942.10 191.90 942.55 192.43Q943.01 192.95 943.92 192.95Q944.62 192.95 945.01 192.52Q945.41 192.09 945.41 191.37Q945.41 190.46 944.82 190.03Q944.23 189.59 942.91 189.59H942.07V185.78H942.89Q943.80 185.80 944.44 185.48Q945.07 185.15 945.07 184.17Q945.07 183.43 944.71 183.05Q944.35 182.68 943.73 182.68Q943.03 182.68 942.71 183.17Q942.38 183.67 942.34 184.39H937.75Q937.85 181.67 939.43 180.22Q941.02 178.77 943.85 178.77ZM966.46 188.85V196.70H961.75V189.47Q961.75 188.32 961.15 187.66Q960.55 187.00 959.54 187.00Q958.49 187.00 957.89 187.66Q957.29 188.32 957.29 189.47V196.70H952.58V178.94H957.29V185.15Q957.91 184.24 958.98 183.68Q960.05 183.11 961.44 183.11Q963.74 183.11 965.10 184.66Q966.46 186.21 966.46 188.85Z" fill="#F3F1EC" fill-opacity=".85"/></g><g class="k k2" style="transform-origin:524.0px 288.0px;transform-box:view-box"><path d="M988.2 288.0 L949.7 306.6 L910.9 321.9 L873.5 334.0 L838.4 343.4 L806.3 350.6 L777.3 355.9 L751.5 359.7 L728.5 362.4 L708.2 364.3 L690.3 365.6 L674.5 366.3 L660.5 366.8 L648.0 367.0 L636.8 367.0 L626.7 366.8 L617.6 366.5 L609.2 366.1 L601.6 365.6 L594.5 364.9 L587.9 364.2 L581.8 363.3 L576.1 362.4 L570.7 361.3 L565.7 360.2 L561.0 359.1 L556.6 357.9 L552.5 356.7 L548.6 355.5 L544.9 354.3 L541.5 353.2 L538.2 352.1 L535.1 351.2 L532.2 350.3 L529.4 349.5 L526.7 348.9 L524.0 348.3 L521.4 347.8 L518.8 347.4 L516.2 347.0 L513.7 346.6 L511.1 346.2 L508.5 345.8 L505.9 345.2 L503.4 344.6 L500.8 343.9 L498.4 343.0 L495.9 341.9 L493.6 340.7 L491.3 339.3 L489.2 337.6 L487.3 335.8 L485.5 333.9 L483.9 331.7 L482.5 329.5 L481.3 327.1 L480.2 324.7 L479.4 322.2 L478.7 319.8 L478.1 317.3 L477.6 314.8 L477.2 312.3 L476.9 310.0 L476.6 307.6 L476.4 305.3 L476.1 303.1 L475.8 300.9 L475.4 298.8 L475.0 296.6 L474.6 294.5 L474.1 292.4 L473.7 290.2 L473.2 288.0 L472.8 285.8 L472.4 283.5 L472.1 281.2 L471.9 278.8 L471.8 276.4 L471.8 274.0 L472.0 271.6 L472.4 269.2 L472.9 266.8 L473.6 264.5 L474.4 262.2 L475.3 259.9 L476.4 257.7 L477.6 255.5 L478.8 253.3 L480.2 251.2 L481.6 249.1 L483.1 247.1 L484.6 245.0 L486.2 242.9 L487.8 240.8 L489.4 238.6 L491.1 236.4 L492.9 234.1 L494.7 231.8 L496.7 229.4 L498.7 227.0 L500.9 224.6 L503.2 222.1 L505.7 219.6 L508.3 217.2 L511.1 214.8 L514.0 212.4 L517.2 210.1 L520.5 207.9 L524.0 205.8 L527.7 203.9 L531.5 202.0 L535.6 200.1 L539.8 198.4 L544.3 196.6 L549.0 194.9 L553.9 193.0 L559.3 191.1 L565.0 188.9 L571.3 186.5 L578.3 183.7 L586.1 180.5 L594.8 176.8 L604.8 172.6 L616.3 167.7 L629.5 162.3 L644.8 156.1 L662.6 149.4 L683.2 142.1 L707.0 134.5 L734.3 126.6 L765.4 118.9 L800.4 111.9 L839.1 106.1 L880.8 102.3 L924.3 101.3 L967.8 104.2 L1008.7 111.6 L1043.9 124.1 L1070.2 141.7 L1085.0 163.6 L1087.0 188.7 L1076.2 215.3 L1054.3 241.6 L1024.0 266.2Z" fill="none" stroke="#F3F1EC" stroke-opacity=".5" stroke-width="2" stroke-dasharray="6 8"/><rect x="1095.5" y="134.4" width="59.8" height="32" rx="8" fill="#0B0B0C" fill-opacity=".86"/><path d="M1115.65 152.30H1111.78V156.28H1107.27V152.30H1103.38V148.05H1107.27V144.04H1111.78V148.05H1115.65ZM1124.17 144.35Q1123.04 144.35 1122.60 145.41Q1122.15 146.47 1122.13 148.72Q1122.61 147.98 1123.52 147.55Q1124.43 147.11 1125.54 147.11Q1127.86 147.11 1129.27 148.55Q1130.67 149.99 1130.67 152.68Q1130.67 154.46 1129.94 155.79Q1129.21 157.12 1127.83 157.84Q1126.45 158.56 1124.58 158.56Q1120.86 158.56 1119.40 156.25Q1117.95 153.93 1117.95 149.68Q1117.95 144.98 1119.49 142.77Q1121.02 140.56 1124.43 140.56Q1127.19 140.56 1128.62 142.11Q1130.05 143.66 1130.22 145.94H1125.85Q1125.68 145.12 1125.30 144.74Q1124.91 144.35 1124.17 144.35ZM1122.46 152.61Q1122.46 153.55 1122.97 154.05Q1123.47 154.55 1124.41 154.55Q1125.27 154.55 1125.76 154.06Q1126.26 153.57 1126.26 152.66Q1126.26 151.77 1125.76 151.27Q1125.27 150.76 1124.38 150.76Q1123.54 150.76 1123.00 151.24Q1122.46 151.72 1122.46 152.61ZM1147.04 150.59V158.44H1142.34V151.22Q1142.34 150.07 1141.74 149.41Q1141.14 148.75 1140.13 148.75Q1139.07 148.75 1138.47 149.41Q1137.87 150.07 1137.87 151.22V158.44H1133.17V140.68H1137.87V146.90Q1138.50 145.99 1139.56 145.42Q1140.63 144.86 1142.02 144.86Q1144.33 144.86 1145.68 146.41Q1147.04 147.95 1147.04 150.59Z" fill="#F3F1EC" fill-opacity=".85"/></g><path class="r" pathLength="1" d="M764.0 312.0 L764.0 408.0 L404.0 408.0" fill="none" stroke="#F3F1EC" stroke-width="6" stroke-linecap="round" stroke-linejoin="round"/><path class="w" d="M764.0 312.0 L764.0 408.0 L404.0 408.0" fill="none" stroke="#0B0B0C" stroke-width="2.4" stroke-dasharray="7 15" stroke-linecap="round"/><path class="r" pathLength="1" d="M1004.0 192.0 L1292.0 192.0 L1292.0 288.0" fill="none" stroke="#F3F1EC" stroke-width="6" stroke-linecap="round" stroke-linejoin="round"/><path class="w" d="M1004.0 192.0 L1292.0 192.0 L1292.0 288.0" fill="none" stroke="#0B0B0C" stroke-width="2.4" stroke-dasharray="7 15" stroke-linecap="round"/><g class="a" ><rect x="747.0" y="295.0" width="34" height="34" rx="6" fill="none" stroke="#FF5A14" stroke-width="3"/></g><rect class="hot" x="756.0" y="304.0" width="16" height="16" rx="3" fill="#FF5A14" stroke="#0B0B0C" stroke-width="3"/><g class="a" ><rect x="987.0" y="175.0" width="34" height="34" rx="6" fill="none" stroke="#FF5A14" stroke-width="3"/></g><rect class="hot" x="996.0" y="184.0" width="16" height="16" rx="3" fill="#FF5A14" stroke="#0B0B0C" stroke-width="3"/><rect x="300.0" y="184.0" width="16" height="16" rx="3" fill="#F3F1EC" stroke="#0B0B0C" stroke-width="3"/><rect x="1428.0" y="184.0" width="16" height="16" rx="3" fill="#F3F1EC" stroke="#0B0B0C" stroke-width="3"/><g class="p"><circle cx="404.0" cy="408.0" r="17" fill="none" stroke="#F3F1EC" stroke-opacity=".5" stroke-width="2.5"/><circle cx="404.0" cy="408.0" r="8.5" fill="#F3F1EC"/></g><g class="p"><circle cx="1292.0" cy="288.0" r="17" fill="none" stroke="#F3F1EC" stroke-opacity=".5" stroke-width="2.5"/><circle cx="1292.0" cy="288.0" r="8.5" fill="#F3F1EC"/></g><g class="ret" style="transform-origin:524.0px 288.0px;transform-box:view-box" fill="none" stroke="#FFA928" stroke-width="3" stroke-linecap="round" stroke-linejoin="round"><path d="M504.0 277.0 V268.0 H513.0"/><path d="M504.0 299.0 V308.0 H513.0"/><path d="M544.0 277.0 V268.0 H535.0"/><path d="M544.0 299.0 V308.0 H535.0"/></g><path d="M595.2 534.0 l7 7 l-7 7" fill="none" stroke="#4A4C52" stroke-width="2.5" stroke-linecap="round" stroke-linejoin="round"/><path d="M772.0 534.0 l7 7 l-7 7" fill="none" stroke="#4A4C52" stroke-width="2.5" stroke-linecap="round" stroke-linejoin="round"/><path d="M943.0 534.0 l7 7 l-7 7" fill="none" stroke="#4A4C52" stroke-width="2.5" stroke-linecap="round" stroke-linejoin="round"/><path class="s0" fill="#F3F1EC" d="M477.27 534.96Q478.89 534.96 480.17 535.63Q481.44 536.31 482.16 537.48V529.8H488.07V552.0H482.16V549.66Q481.47 550.83 480.21 551.52Q478.95 552.21 477.24 552.21Q475.23 552.21 473.6 551.16Q471.96 550.11 471.02 548.14Q470.07 546.18 470.07 543.57Q470.07 540.96 471.02 539.01Q471.96 537.06 473.61 536.01Q475.26 534.96 477.27 534.96ZM479.13 540.09Q477.81 540.09 476.94 541.00Q476.07 541.92 476.07 543.57Q476.07 545.19 476.94 546.13Q477.81 547.08 479.13 547.08Q480.42 547.08 481.31 546.15Q482.19 545.22 482.19 543.57Q482.19 541.95 481.31 541.02Q480.42 540.09 479.13 540.09ZM507.42 544.77H496.29Q496.38 546.15 497.06 546.82Q497.73 547.5 498.78 547.5Q500.25 547.5 500.88 546.18H507.15Q506.76 547.92 505.64 549.28Q504.51 550.65 502.80 551.43Q501.09 552.21 499.02 552.21Q496.53 552.21 494.6 551.16Q492.66 550.11 491.57 548.16Q490.47 546.21 490.47 543.57Q490.47 540.93 491.55 538.99Q492.63 537.06 494.57 536.01Q496.50 534.96 499.02 534.96Q501.51 534.96 503.43 535.98Q505.35 537.0 506.43 538.90Q507.51 540.81 507.51 543.39Q507.51 544.08 507.42 544.77ZM501.51 541.92Q501.51 540.84 500.79 540.22Q500.07 539.61 498.99 539.61Q497.91 539.61 497.22 540.19Q496.53 540.78 496.32 541.92ZM519.84 546.99V552.0H517.29Q510.84 552.0 510.84 545.61V540.06H508.77V535.17H510.84V531.09H516.75V535.17H519.81V540.06H516.75V545.7Q516.75 546.39 517.06 546.69Q517.38 546.99 518.13 546.99ZM538.53 544.77H527.40Q527.49 546.15 528.17 546.82Q528.84 547.5 529.89 547.5Q531.36 547.5 531.99 546.18H538.26Q537.87 547.92 536.75 549.28Q535.62 550.65 533.91 551.43Q532.20 552.21 530.13 552.21Q527.64 552.21 525.71 551.16Q523.77 550.11 522.68 548.16Q521.58 546.21 521.58 543.57Q521.58 540.93 522.66 538.99Q523.74 537.06 525.68 536.01Q527.61 534.96 530.13 534.96Q532.62 534.96 534.54 535.98Q536.46 537.0 537.54 538.90Q538.62 540.81 538.62 543.39Q538.62 544.08 538.53 544.77ZM532.62 541.92Q532.62 540.84 531.90 540.22Q531.18 539.61 530.10 539.61Q529.02 539.61 528.33 540.19Q527.64 540.78 527.43 541.92ZM548.58 534.96Q551.79 534.96 553.98 536.71Q556.17 538.47 556.80 541.62H550.56Q550.02 539.97 548.46 539.97Q547.35 539.97 546.71 540.88Q546.06 541.8 546.06 543.57Q546.06 545.34 546.71 546.27Q547.35 547.2 548.46 547.2Q550.05 547.2 550.56 545.55H556.80Q556.17 548.67 553.98 550.44Q551.79 552.21 548.58 552.21Q546.09 552.21 544.16 551.16Q542.22 550.11 541.14 548.16Q540.06 546.21 540.06 543.57Q540.06 540.96 541.14 539.01Q542.22 537.06 544.16 536.01Q546.09 534.96 548.58 534.96ZM569.16 546.99V552.0H566.61Q560.16 552.0 560.16 545.61V540.06H558.09V535.17H560.16V531.09H566.07V535.17H569.13V540.06H566.07V545.7Q566.07 546.39 566.39 546.69Q566.70 546.99 567.45 546.99Z"/><path class="s1" fill="#F3F1EC" d="M646.66 534.96Q648.67 534.96 650.31 536.01Q651.94 537.06 652.89 539.01Q653.83 540.96 653.83 543.57Q653.83 546.18 652.89 548.14Q651.94 550.11 650.31 551.16Q648.67 552.21 646.66 552.21Q644.95 552.21 643.71 551.52Q642.46 550.83 641.74 549.66V560.04H635.86V535.17H641.74V537.51Q642.43 536.34 643.69 535.65Q644.95 534.96 646.66 534.96ZM644.80 540.09Q643.51 540.09 642.63 541.02Q641.74 541.95 641.74 543.57Q641.74 545.22 642.63 546.15Q643.51 547.08 644.80 547.08Q646.09 547.08 646.98 546.13Q647.86 545.19 647.86 543.57Q647.86 541.92 646.98 541.00Q646.09 540.09 644.80 540.09ZM667.57 535.02V541.29H665.92Q664.00 541.29 663.07 542.04Q662.14 542.79 662.14 544.65V552.0H656.26V535.17H662.14V538.14Q663.13 536.7 664.54 535.86Q665.95 535.02 667.57 535.02ZM685.66 544.77H674.53Q674.62 546.15 675.30 546.82Q675.97 547.5 677.02 547.5Q678.49 547.5 679.12 546.18H685.39Q685.00 547.92 683.88 549.28Q682.75 550.65 681.04 551.43Q679.33 552.21 677.26 552.21Q674.77 552.21 672.84 551.16Q670.90 550.11 669.81 548.16Q668.71 546.21 668.71 543.57Q668.71 540.93 669.79 538.99Q670.87 537.06 672.81 536.01Q674.74 534.96 677.26 534.96Q679.75 534.96 681.67 535.98Q683.59 537.0 684.67 538.90Q685.75 540.81 685.75 543.39Q685.75 544.08 685.66 544.77ZM679.75 541.92Q679.75 540.84 679.03 540.22Q678.31 539.61 677.23 539.61Q676.15 539.61 675.46 540.19Q674.77 540.78 674.56 541.92ZM694.39 534.96Q696.01 534.96 697.29 535.63Q698.56 536.31 699.28 537.48V529.8H705.19V552.0H699.28V549.66Q698.59 550.83 697.33 551.52Q696.07 552.21 694.36 552.21Q692.35 552.21 690.72 551.16Q689.08 550.11 688.14 548.14Q687.19 546.18 687.19 543.57Q687.19 540.96 688.14 539.01Q689.08 537.06 690.73 536.01Q692.38 534.96 694.39 534.96ZM696.25 540.09Q694.93 540.09 694.06 541.00Q693.19 541.92 693.19 543.57Q693.19 545.19 694.06 546.13Q694.93 547.08 696.25 547.08Q697.54 547.08 698.43 546.15Q699.31 545.22 699.31 543.57Q699.31 541.95 698.43 541.02Q697.54 540.09 696.25 540.09ZM708.07 530.61Q708.07 529.29 709.02 528.42Q709.96 527.55 711.52 527.55Q713.05 527.55 714.0 528.42Q714.94 529.29 714.94 530.61Q714.94 531.9 714.0 532.75Q713.05 533.61 711.52 533.61Q709.96 533.61 709.02 532.75Q708.07 531.9 708.07 530.61ZM714.43 535.17V552.0H708.55V535.17ZM725.35 534.96Q728.56 534.96 730.75 536.71Q732.94 538.47 733.57 541.62H727.33Q726.79 539.97 725.23 539.97Q724.12 539.97 723.48 540.88Q722.83 541.8 722.83 543.57Q722.83 545.34 723.48 546.27Q724.12 547.2 725.23 547.2Q726.82 547.2 727.33 545.55H733.57Q732.94 548.67 730.75 550.44Q728.56 552.21 725.35 552.21Q722.86 552.21 720.93 551.16Q718.99 550.11 717.91 548.16Q716.83 546.21 716.83 543.57Q716.83 540.96 717.91 539.01Q718.99 537.06 720.93 536.01Q722.86 534.96 725.35 534.96ZM745.93 546.99V552.0H743.38Q736.93 552.0 736.93 545.61V540.06H734.86V535.17H736.93V531.09H742.84V535.17H745.90V540.06H742.84V545.7Q742.84 546.39 743.16 546.69Q743.47 546.99 744.22 546.99Z"/><path class="s2" fill="#F3F1EC" d="M818.84 534.96Q820.58 534.96 821.84 535.65Q823.10 536.34 823.79 537.51V535.17H829.67V552.0H823.79V549.66Q823.10 550.83 821.83 551.52Q820.55 552.21 818.84 552.21Q816.83 552.21 815.2 551.16Q813.56 550.11 812.62 548.14Q811.67 546.18 811.67 543.57Q811.67 540.96 812.62 539.01Q813.56 537.06 815.2 536.01Q816.83 534.96 818.84 534.96ZM820.73 540.09Q819.41 540.09 818.54 541.00Q817.67 541.92 817.67 543.57Q817.67 545.19 818.54 546.13Q819.41 547.08 820.73 547.08Q822.02 547.08 822.91 546.15Q823.79 545.22 823.79 543.57Q823.79 541.95 822.91 541.02Q822.02 540.09 820.73 540.09ZM832.16 546.33H837.86Q837.98 547.14 838.61 547.58Q839.24 548.04 840.17 548.04Q840.89 548.04 841.31 547.74Q841.73 547.44 841.73 546.96Q841.73 546.33 841.04 546.03Q840.35 545.73 838.76 545.37Q836.96 545.01 835.76 544.56Q834.56 544.11 833.68 543.09Q832.79 542.07 832.79 540.33Q832.79 538.83 833.60 537.61Q834.41 536.4 835.99 535.68Q837.56 534.96 839.78 534.96Q843.08 534.96 844.97 536.58Q846.86 538.2 847.16 540.84H841.85Q841.70 540.03 841.15 539.59Q840.59 539.16 839.66 539.16Q838.94 539.16 838.57 539.43Q838.19 539.7 838.19 540.18Q838.19 540.78 838.88 541.09Q839.57 541.41 841.10 541.74Q842.93 542.13 844.15 542.61Q845.36 543.09 846.28 544.15Q847.19 545.22 847.19 547.05Q847.19 548.52 846.34 549.69Q845.48 550.86 843.91 551.53Q842.33 552.21 840.20 552.21Q837.92 552.21 836.14 551.44Q834.35 550.68 833.31 549.34Q832.28 548.01 832.16 546.33ZM849.20 546.33H854.90Q855.02 547.14 855.65 547.58Q856.28 548.04 857.21 548.04Q857.93 548.04 858.35 547.74Q858.77 547.44 858.77 546.96Q858.77 546.33 858.08 546.03Q857.39 545.73 855.80 545.37Q854.00 545.01 852.80 544.56Q851.60 544.11 850.72 543.09Q849.83 542.07 849.83 540.33Q849.83 538.83 850.64 537.61Q851.45 536.4 853.03 535.68Q854.60 534.96 856.82 534.96Q860.12 534.96 862.01 536.58Q863.90 538.2 864.20 540.84H858.89Q858.74 540.03 858.19 539.59Q857.63 539.16 856.70 539.16Q855.98 539.16 855.61 539.43Q855.23 539.7 855.23 540.18Q855.23 540.78 855.92 541.09Q856.61 541.41 858.14 541.74Q859.97 542.13 861.19 542.61Q862.40 543.09 863.31 544.15Q864.23 545.22 864.23 547.05Q864.23 548.52 863.38 549.69Q862.52 550.86 860.95 551.53Q859.37 552.21 857.24 552.21Q854.96 552.21 853.18 551.44Q851.39 550.68 850.35 549.34Q849.32 548.01 849.20 546.33ZM883.10 544.77H871.97Q872.06 546.15 872.74 546.82Q873.41 547.5 874.46 547.5Q875.93 547.5 876.56 546.18H882.83Q882.44 547.92 881.32 549.28Q880.19 550.65 878.48 551.43Q876.77 552.21 874.70 552.21Q872.21 552.21 870.28 551.16Q868.34 550.11 867.25 548.16Q866.15 546.21 866.15 543.57Q866.15 540.93 867.23 538.99Q868.31 537.06 870.25 536.01Q872.18 534.96 874.70 534.96Q877.19 534.96 879.11 535.98Q881.03 537.0 882.11 538.90Q883.19 540.81 883.19 543.39Q883.19 544.08 883.10 544.77ZM877.19 541.92Q877.19 540.84 876.47 540.22Q875.75 539.61 874.67 539.61Q873.59 539.61 872.90 540.19Q872.21 540.78 872.00 541.92ZM884.72 546.33H890.42Q890.54 547.14 891.17 547.58Q891.80 548.04 892.73 548.04Q893.45 548.04 893.87 547.74Q894.29 547.44 894.29 546.96Q894.29 546.33 893.60 546.03Q892.91 545.73 891.32 545.37Q889.52 545.01 888.32 544.56Q887.12 544.11 886.24 543.09Q885.35 542.07 885.35 540.33Q885.35 538.83 886.16 537.61Q886.97 536.4 888.55 535.68Q890.12 534.96 892.34 534.96Q895.64 534.96 897.53 536.58Q899.42 538.2 899.72 540.84H894.41Q894.26 540.03 893.71 539.59Q893.15 539.16 892.22 539.16Q891.50 539.16 891.13 539.43Q890.75 539.7 890.75 540.18Q890.75 540.78 891.44 541.09Q892.13 541.41 893.66 541.74Q895.49 542.13 896.71 542.61Q897.92 543.09 898.84 544.15Q899.75 545.22 899.75 547.05Q899.75 548.52 898.90 549.69Q898.04 550.86 896.47 551.53Q894.89 552.21 892.76 552.21Q890.48 552.21 888.7 551.44Q886.91 550.68 885.88 549.34Q884.84 548.01 884.72 546.33ZM901.76 546.33H907.46Q907.58 547.14 908.21 547.58Q908.84 548.04 909.77 548.04Q910.49 548.04 910.91 547.74Q911.33 547.44 911.33 546.96Q911.33 546.33 910.64 546.03Q909.95 545.73 908.36 545.37Q906.56 545.01 905.36 544.56Q904.16 544.11 903.28 543.09Q902.39 542.07 902.39 540.33Q902.39 538.83 903.20 537.61Q904.01 536.4 905.59 535.68Q907.16 534.96 909.38 534.96Q912.68 534.96 914.57 536.58Q916.46 538.2 916.76 540.84H911.45Q911.30 540.03 910.75 539.59Q910.19 539.16 909.26 539.16Q908.54 539.16 908.17 539.43Q907.79 539.7 907.79 540.18Q907.79 540.78 908.48 541.09Q909.17 541.41 910.70 541.74Q912.53 542.13 913.75 542.61Q914.96 543.09 915.88 544.15Q916.79 545.22 916.79 547.05Q916.79 548.52 915.94 549.69Q915.08 550.86 913.51 551.53Q911.93 552.21 909.80 552.21Q907.52 552.21 905.74 551.44Q903.95 550.68 902.92 549.34Q901.88 548.01 901.76 546.33Z"/><path class="s3" fill="#FF5A14" d="M999.66 544.77H988.53Q988.62 546.15 989.3 546.82Q989.97 547.5 991.02 547.5Q992.49 547.5 993.12 546.18H999.39Q999.00 547.92 997.88 549.28Q996.75 550.65 995.04 551.43Q993.33 552.21 991.26 552.21Q988.77 552.21 986.83 551.16Q984.90 550.11 983.81 548.16Q982.71 546.21 982.71 543.57Q982.71 540.93 983.79 538.99Q984.87 537.06 986.81 536.01Q988.74 534.96 991.26 534.96Q993.75 534.96 995.67 535.98Q997.59 537.0 998.67 538.90Q999.75 540.81 999.75 543.39Q999.75 544.08 999.66 544.77ZM993.75 541.92Q993.75 540.84 993.03 540.22Q992.31 539.61 991.23 539.61Q990.15 539.61 989.46 540.19Q988.77 540.78 988.56 541.92ZM1010.22 546.45 1013.37 535.17H1019.64L1013.85 552.0H1006.53L1000.74 535.17H1007.01ZM1027.83 534.96Q1029.57 534.96 1030.83 535.65Q1032.09 536.34 1032.78 537.51V535.17H1038.66V552.0H1032.78V549.66Q1032.09 550.83 1030.82 551.52Q1029.54 552.21 1027.83 552.21Q1025.82 552.21 1024.19 551.16Q1022.55 550.11 1021.61 548.14Q1020.66 546.18 1020.66 543.57Q1020.66 540.96 1021.61 539.01Q1022.55 537.06 1024.19 536.01Q1025.82 534.96 1027.83 534.96ZM1029.72 540.09Q1028.40 540.09 1027.53 541.00Q1026.66 541.92 1026.66 543.57Q1026.66 545.19 1027.53 546.13Q1028.40 547.08 1029.72 547.08Q1031.01 547.08 1031.9 546.15Q1032.78 545.22 1032.78 543.57Q1032.78 541.95 1031.9 541.02Q1031.01 540.09 1029.72 540.09ZM1049.58 534.96Q1052.79 534.96 1054.98 536.71Q1057.17 538.47 1057.80 541.62H1051.56Q1051.02 539.97 1049.46 539.97Q1048.35 539.97 1047.71 540.88Q1047.06 541.8 1047.06 543.57Q1047.06 545.34 1047.71 546.27Q1048.35 547.2 1049.46 547.2Q1051.05 547.2 1051.56 545.55H1057.80Q1057.17 548.67 1054.98 550.44Q1052.79 552.21 1049.58 552.21Q1047.09 552.21 1045.16 551.16Q1043.22 550.11 1042.14 548.16Q1041.06 546.21 1041.06 543.57Q1041.06 540.96 1042.14 539.01Q1043.22 537.06 1045.16 536.01Q1047.09 534.96 1049.58 534.96ZM1077.45 535.17V552.0H1071.54V549.6Q1070.79 550.74 1069.47 551.44Q1068.15 552.15 1066.44 552.15Q1063.50 552.15 1061.81 550.21Q1060.11 548.28 1060.11 544.95V535.17H1065.96V544.2Q1065.96 545.64 1066.73 546.46Q1067.49 547.29 1068.75 547.29Q1070.04 547.29 1070.79 546.46Q1071.54 545.64 1071.54 544.2V535.17ZM1087.02 534.96Q1088.76 534.96 1090.02 535.65Q1091.28 536.34 1091.97 537.51V535.17H1097.85V552.0H1091.97V549.66Q1091.28 550.83 1090.01 551.52Q1088.73 552.21 1087.02 552.21Q1085.01 552.21 1083.38 551.16Q1081.74 550.11 1080.8 548.14Q1079.85 546.18 1079.85 543.57Q1079.85 540.96 1080.8 539.01Q1081.74 537.06 1083.38 536.01Q1085.01 534.96 1087.02 534.96ZM1088.91 540.09Q1087.59 540.09 1086.72 541.00Q1085.85 541.92 1085.85 543.57Q1085.85 545.19 1086.72 546.13Q1087.59 547.08 1088.91 547.08Q1090.20 547.08 1091.09 546.15Q1091.97 545.22 1091.97 543.57Q1091.97 541.95 1091.09 541.02Q1090.20 540.09 1088.91 540.09ZM1111.14 546.99V552.0H1108.59Q1102.14 552.0 1102.14 545.61V540.06H1100.07V535.17H1102.14V531.09H1108.05V535.17H1111.11V540.06H1108.05V545.7Q1108.05 546.39 1108.37 546.69Q1108.68 546.99 1109.43 546.99ZM1129.83 544.77H1118.70Q1118.79 546.15 1119.47 546.82Q1120.14 547.5 1121.19 547.5Q1122.66 547.5 1123.29 546.18H1129.56Q1129.17 547.92 1128.05 549.28Q1126.92 550.65 1125.21 551.43Q1123.50 552.21 1121.43 552.21Q1118.94 552.21 1117.01 551.16Q1115.07 550.11 1113.98 548.16Q1112.88 546.21 1112.88 543.57Q1112.88 540.93 1113.96 538.99Q1115.04 537.06 1116.98 536.01Q1118.91 534.96 1121.43 534.96Q1123.92 534.96 1125.84 535.98Q1127.76 537.0 1128.84 538.90Q1129.92 540.81 1129.92 543.39Q1129.92 544.08 1129.83 544.77ZM1123.92 541.92Q1123.92 540.84 1123.20 540.22Q1122.48 539.61 1121.40 539.61Q1120.32 539.61 1119.63 540.19Q1118.94 540.78 1118.73 541.92Z"/></svg>
